<?xml version="1.0" encoding="UTF-8" standalone="no"?>
<svg
   xmlns:dc="http://purl.org/dc/elements/1.1/"
   xmlns:cc="http://creativecommons.org/ns#"
   xmlns:rdf="http://www.w3.org/1999/02/22-rdf-syntax-ns#"
   xmlns:svg="http://www.w3.org/2000/svg"
   xmlns="http://www.w3.org/2000/svg"
   xmlns:sodipodi="http://sodipodi.sourceforge.net/DTD/sodipodi-0.dtd"
   xmlns:inkscape="http://www.inkscape.org/namespaces/inkscape"
   viewBox="0 0 180.70866 180.70867"
   height="5.0999999cm"
   width="5.0999999cm"
   xml:space="preserve"
   version="1.1"
   id="svg2"
   inkscape:version="0.91 r13725"
   sodipodi:docname="carrier-transicold-utc-logo.svg"><sodipodi:namedview
     pagecolor="#ffffff"
     bordercolor="#666666"
     borderopacity="1"
     objecttolerance="10"
     gridtolerance="10"
     guidetolerance="10"
     inkscape:pageopacity="0"
     inkscape:pageshadow="2"
     inkscape:window-width="1305"
     inkscape:window-height="744"
     id="namedview101"
     showgrid="false"
     units="cm"
     inkscape:zoom="2.6961644"
     inkscape:cx="54.344814"
     inkscape:cy="73.437658"
     inkscape:window-x="61"
     inkscape:window-y="24"
     inkscape:window-maximized="1"
     inkscape:current-layer="svg2" /><metadata
     id="metadata8"><rdf:RDF><cc:Work
         rdf:about=""><dc:format>image/svg+xml</dc:format><dc:type
           rdf:resource="http://purl.org/dc/dcmitype/StillImage" /><dc:title></dc:title></cc:Work></rdf:RDF></metadata><defs
     id="defs6"><clipPath
       id="clipPath20"
       clipPathUnits="userSpaceOnUse"><path
         id="path22"
         d="m 0,70.025 86.952,0 L 86.952,0 0,0 0,70.025 Z"
         inkscape:connector-curvature="0" /></clipPath></defs><g
     transform="matrix(2.1105517,0,0,-1.9926304,-0.7146963,159.58352)"
     id="g10"><g
       transform="translate(12.0645,22.2539)"
       id="g12"><path
         id="path14"
         style="fill:#152c73;fill-opacity:1;fill-rule:nonzero;stroke:none"
         d="m 0,0 -1.471,0 1.069,3.934 -1.091,0 0.321,1.17 3.684,0 -0.321,-1.17 -1.122,0 L 0,0 Z"
         inkscape:connector-curvature="0" /></g><g
       id="g16"><g
         clip-path="url(#clipPath20)"
         id="g18"><g
           transform="translate(18.3047,25.2441)"
           id="g24"><path
             id="path26"
             style="fill:#152c73;fill-opacity:1;fill-rule:nonzero;stroke:none"
             d="M 0,0 0.571,0 C 0.87,0 1.01,0.022 1.179,0.122 1.326,0.214 1.436,0.39 1.454,0.558 1.502,1.03 0.938,1.03 0.81,1.03 L 0.274,1.03 0,0 Z m 2.065,-2.99 -1.504,0 -0.246,1.929 -0.602,0 -0.531,-1.929 -1.449,0 1.39,5.088 2.219,0 C 2.028,2.098 2.324,1.951 2.509,1.814 2.875,1.532 3.002,1.067 2.955,0.618 2.905,0.145 2.668,-0.289 2.313,-0.565 2.089,-0.731 1.898,-0.802 1.731,-0.861 L 2.065,-2.99 Z"
             inkscape:connector-curvature="0" /></g><g
           transform="translate(26.3164,24.3428)"
           id="g28"><path
             id="path30"
             style="fill:#152c73;fill-opacity:1;fill-rule:nonzero;stroke:none"
             d="M 0,0 -0.051,1.472 -0.87,0 0,0 Z m -1.383,-1.051 -0.583,-1.038 -1.258,0 2.89,5.088 1.595,0 0.252,-5.088 -1.496,0 -0.037,1.038 -1.363,0 z"
             inkscape:connector-curvature="0" /></g><g
           transform="translate(34.9526,22.2539)"
           id="g32"><path
             id="path34"
             style="fill:#152c73;fill-opacity:1;fill-rule:nonzero;stroke:none"
             d="M 0,0 -1.13,0 -1.9,1.954 C -2.042,2.327 -2.221,2.831 -2.27,3.219 -2.269,3.096 -2.279,2.93 -2.393,2.496 L -3.076,0 l -1.235,0 1.382,5.088 1.373,0 0.433,-1.177 c 0.212,-0.586 0.478,-1.333 0.564,-1.814 0,0.078 0.003,0.162 0.008,0.23 0.022,0.206 0.134,0.617 0.197,0.83 l 0.522,1.931 1.213,0 L 0,0 Z"
             inkscape:connector-curvature="0" /></g><g
           transform="translate(41.8955,25.832)"
           id="g36"><path
             id="path38"
             style="fill:#152c73;fill-opacity:1;fill-rule:nonzero;stroke:none"
             d="m 0,0 c -0.019,0.113 -0.04,0.213 -0.195,0.328 -0.191,0.137 -0.394,0.159 -0.525,0.159 -0.413,0 -0.519,-0.214 -0.531,-0.336 -0.018,-0.175 0.146,-0.283 0.425,-0.38 L 0.012,-0.534 C 0.526,-0.725 0.98,-1.183 0.907,-1.885 0.814,-2.776 0.011,-3.652 -1.521,-3.652 c -0.496,0 -1.149,0.09 -1.664,0.494 -0.393,0.312 -0.495,0.67 -0.567,0.922 l 1.496,0.29 c 0.05,-0.175 0.164,-0.542 0.881,-0.542 0.472,0 0.615,0.206 0.633,0.374 0.02,0.199 -0.145,0.281 -0.498,0.413 l -0.519,0.2 c -0.66,0.257 -0.957,0.479 -1.093,0.859 -0.076,0.216 -0.076,0.427 -0.062,0.579 0.053,0.49 0.435,1.658 2.219,1.658 0.793,0 1.213,-0.209 1.482,-0.414 0.415,-0.32 0.497,-0.64 0.56,-0.848 L 0,0 Z"
             inkscape:connector-curvature="0" /></g><g
           transform="translate(46.7129,22.2539)"
           id="g40"><path
             id="path42"
             style="fill:#152c73;fill-opacity:1;fill-rule:nonzero;stroke:none"
             d="m 0,0 -1.444,0 1.385,5.088 1.44,0 L 0,0 Z"
             inkscape:connector-curvature="0" /></g><g
           transform="translate(54.7017,24.0459)"
           id="g44"><path
             id="path46"
             style="fill:#152c73;fill-opacity:1;fill-rule:nonzero;stroke:none"
             d="m 0,0 c -0.134,-0.328 -0.316,-0.754 -0.771,-1.198 -0.562,-0.54 -1.121,-0.701 -1.701,-0.701 -1.387,0 -1.977,1.068 -1.845,2.319 0.125,1.183 1,2.99 2.923,2.99 0.968,0 1.909,-0.566 1.789,-1.975 L -1.049,1.327 c 0.032,0.298 0.082,0.931 -0.513,0.931 -0.433,0 -0.646,-0.359 -0.753,-0.571 -0.234,-0.474 -0.426,-1.291 -0.457,-1.586 -0.017,-0.163 -0.082,-0.786 0.526,-0.786 0.467,0 0.684,0.336 0.9,0.862 L 0,0 Z"
             inkscape:connector-curvature="0" /></g><g
           transform="translate(60.9424,25.4971)"
           id="g48"><path
             id="path50"
             style="fill:#152c73;fill-opacity:1;fill-rule:nonzero;stroke:none"
             d="m 0,0 c 0.024,0.249 0.015,0.793 -0.574,0.793 -0.335,0 -0.576,-0.199 -0.777,-0.565 -0.261,-0.473 -0.457,-1.389 -0.484,-1.633 -0.018,-0.175 -0.081,-0.778 0.566,-0.778 0.604,0 0.857,0.579 1.112,1.495 C -0.143,-0.65 -0.024,-0.223 0,0 m -1.405,-3.366 c -1.153,0 -2.149,0.758 -1.99,2.282 0.16,1.504 1.238,3.059 2.999,3.059 1.258,0 2.097,-0.876 1.952,-2.257 -0.175,-1.656 -1.337,-3.084 -2.961,-3.084"
             inkscape:connector-curvature="0" /></g><g
           transform="translate(68.2256,22.2539)"
           id="g52"><path
             id="path54"
             style="fill:#152c73;fill-opacity:1;fill-rule:nonzero;stroke:none"
             d="m 0,0 -3.468,0 1.382,5.088 1.54,0 -1.055,-3.867 1.937,0 L 0,0 Z"
             inkscape:connector-curvature="0" /></g><g
           transform="translate(72.9624,23.3906)"
           id="g56"><path
             id="path58"
             style="fill:#152c73;fill-opacity:1;fill-rule:nonzero;stroke:none"
             d="M 0,0 0.342,0 C 0.519,0 0.998,0 1.291,0.245 1.634,0.534 1.883,1.105 1.948,1.726 2.008,2.28 1.894,2.853 1.215,2.853 l -0.437,0 L 0,0 Z m -0.441,3.951 1.693,0 C 1.853,3.951 2.455,3.927 2.955,3.454 3.419,3.003 3.542,2.355 3.469,1.67 3.367,0.694 2.892,-0.192 2.083,-0.717 1.459,-1.12 0.887,-1.137 0.031,-1.137 l -1.861,0 1.389,5.088 z"
             inkscape:connector-curvature="0" /></g><g
           transform="translate(77.7837,19.6436)"
           id="g60"><path
             id="path62"
             style="fill:#152c73;fill-opacity:1;fill-rule:nonzero;stroke:none"
             d="m 0,0 -64.497,0 c -2.244,-0.004 -4.061,-1.823 -4.061,-4.066 0,-2.246 1.817,-4.065 4.061,-4.069 l 60.43,0 C -1.821,-8.133 0,-6.313 0,-4.067 L 0,0 Z"
             inkscape:connector-curvature="0" /></g><g
           transform="translate(14.3857,15.7432)"
           id="g64"><path
             id="path66"
             style="fill:#ffffff;fill-opacity:1;fill-rule:nonzero;stroke:none"
             d="M 0,0 C -0.01,0.055 -0.023,0.109 -0.039,0.162 L 1.718,0.609 C 1.737,0.557 1.756,0.475 1.766,0.419 L 0,0 Z m -0.163,0.429 c 0.032,-0.05 0.059,-0.103 0.081,-0.156 l 1.596,0.87 C 1.488,1.199 1.444,1.28 1.411,1.332 L -0.163,0.429 Z M 1.09,1.771 C 1.043,1.828 0.968,1.908 0.909,1.958 L -0.388,0.686 C -0.33,0.639 -0.277,0.582 -0.23,0.521 l 1.32,1.25 z M -0.656,0.858 C -0.579,0.823 -0.508,0.779 -0.44,0.729 L 0.497,2.285 C 0.43,2.333 0.333,2.395 0.254,2.429 l -0.91,-1.571 z m -0.3,0.087 c 0.092,-0.015 0.174,-0.039 0.255,-0.07 l 0.493,1.752 C -0.289,2.658 -0.402,2.689 -0.49,2.705 L -0.956,0.945 Z M -0.971,2.77 c -0.05,0.004 -0.111,0.007 -0.158,0.007 -0.045,0 -0.106,-0.002 -0.148,-0.007 L -1.26,0.949 c 0.044,0.004 0.09,0.008 0.135,0.008 0.047,0 0.093,-0.004 0.139,-0.008 l 0.015,1.821 z m 0.938,-5.704 -0.195,0.697 0.025,0.008 0.379,-0.609 c 0.187,0.082 0.371,0.202 0.52,0.33 l -0.346,0.557 0.018,0.017 0.495,-0.435 c 0.164,0.14 0.317,0.319 0.429,0.488 l -0.453,0.404 0.016,0.022 0.552,-0.25 c 0.121,0.189 0.224,0.411 0.283,0.63 l -0.5,0.232 0.007,0.026 0.546,-0.066 c 0.058,0.219 0.087,0.457 0.083,0.699 l -1.812,0 c -0.002,-0.628 -0.512,-1.134 -1.139,-1.134 -0.628,0 -1.137,0.509 -1.137,1.136 0,0.576 0.427,1.053 0.983,1.128 L -1.742,2.711 C -1.84,2.695 -1.962,2.663 -2.053,2.629 L -1.598,0.976 -1.621,0.967 -2.471,2.453 C -2.57,2.408 -2.688,2.342 -2.771,2.277 L -1.932,0.892 -1.952,0.873 -3.104,2.02 C -3.19,1.948 -3.29,1.852 -3.356,1.765 L -2.243,0.703 -2.26,0.686 -3.596,1.455 C -3.666,1.359 -3.739,1.229 -3.788,1.121 L -2.512,0.419 -2.521,0.394 -3.928,0.785 C -3.973,0.665 -4.015,0.516 -4.035,0.388 l 1.338,-0.326 -0.005,-0.027 -1.38,0 c -0.004,-0.069 -0.013,-0.152 -0.013,-0.219 0,-0.065 0.009,-0.146 0.013,-0.211 l 1.3,0.011 10e-4,-0.025 -1.26,-0.312 c 0.021,-0.15 0.062,-0.299 0.115,-0.435 l 1.17,0.32 0.01,-0.023 -1.063,-0.587 c 0.066,-0.144 0.143,-0.279 0.237,-0.408 l 0.961,0.559 0.017,-0.021 -0.8,-0.776 c 0.101,-0.125 0.216,-0.24 0.342,-0.343 l 0.718,0.71 0.02,-0.015 -0.51,-0.869 c 0.134,-0.1 0.277,-0.184 0.431,-0.254 l 0.467,0.795 0.024,-0.009 -0.24,-0.888 c 0.16,-0.063 0.329,-0.107 0.509,-0.135 l 0.223,0.821 0.024,-0.003 0.006,-0.85 c 0.081,-0.007 0.164,-0.014 0.251,-0.014 0.098,0 0.198,0.008 0.295,0.018 l 0,0.79 0.026,0 0.217,-0.756 c 0.2,0.032 0.392,0.088 0.556,0.16"
             inkscape:connector-curvature="0" /></g><g
           transform="translate(29.0244,17.3613)"
           id="g68"><path
             id="path70"
             style="fill:#ffffff;fill-opacity:1;fill-rule:nonzero;stroke:none"
             d="m 0,0 0,-3.069 -0.631,0 -0.015,0.181 -0.016,0 c -0.034,-0.062 -0.183,-0.251 -0.51,-0.251 -0.378,0 -0.58,0.263 -0.58,0.648 l 0,1.143 c 0,0.39 0.231,0.64 0.568,0.64 0.27,0 0.41,-0.121 0.457,-0.157 l 0.006,0 0,0.865 L 0,0 Z m -1.036,-2.464 c 0,-0.123 0.072,-0.174 0.157,-0.174 0.076,0 0.164,0.051 0.164,0.168 l 0,1.105 c 0,0.117 -0.088,0.166 -0.164,0.166 -0.082,0 -0.157,-0.052 -0.157,-0.172 0.002,-0.122 0,-1.093 0,-1.093 m -4.321,1.221 0,0.478 0.211,0 0,0.662 0.749,0 0,-0.662 0.314,0 0,-0.478 -0.314,0 0,-1.168 c 0,-0.129 0.084,-0.199 0.206,-0.199 0.048,-0.004 0.108,0 0.108,0 l 0,-0.479 -0.417,0 c -0.41,0 -0.646,0.223 -0.646,0.589 l 0,1.257 -0.211,0 z m -1.032,1.238 0.753,0 0,-0.551 -0.753,0 0,0.551 z m 0,-0.777 0.753,0 0,-2.291 -0.753,0 0,2.291 z m -1.584,-0.004 0.017,-0.203 0.011,0 c 0.066,0.092 0.244,0.277 0.54,0.277 0.382,0 0.581,-0.275 0.581,-0.606 l 0,-1.755 -0.743,0 0,1.601 c 0.004,0.121 -0.078,0.185 -0.155,0.185 -0.075,0 -0.165,-0.064 -0.165,-0.178 l 0,-1.608 -0.733,0 0,2.287 0.647,0 z m -3.072,0.779 0.78,0 0,-2.293 c -0.005,-0.15 0.04,-0.262 0.216,-0.262 0.15,0 0.211,0.092 0.211,0.262 l 0,2.293 0.782,0 0,-2.22 c 0,-0.518 -0.26,-0.918 -0.998,-0.918 -0.612,0 -0.991,0.291 -0.991,0.918 l 0,2.22 z"
             inkscape:connector-curvature="0" /></g><g
           transform="translate(30.3486,17.3779)"
           id="g72"><path
             id="path74"
             style="fill:#ffffff;fill-opacity:1;fill-rule:nonzero;stroke:none"
             d="m 0,0 1.865,0 0,-0.614 -0.537,0 0,-2.45 -0.813,0 0,2.45 L 0,-0.614 0,0 Z"
             inkscape:connector-curvature="0" /></g><g
           transform="translate(32.7734,16.0137)"
           id="g76"><path
             id="path78"
             style="fill:#ffffff;fill-opacity:1;fill-rule:nonzero;stroke:none"
             d="m 0,0 c 0,0.09 0.065,0.161 0.159,0.161 0.085,0 0.16,-0.061 0.16,-0.155 l 0,-0.265 L 0,-0.259 0,0 Z m 1.006,-0.718 0,0.585 c 0,0.472 -0.265,0.786 -0.847,0.786 -0.529,0 -0.85,-0.267 -0.85,-0.786 l 0,-0.858 c 0,-0.522 0.321,-0.787 0.85,-0.787 0.575,0 0.835,0.315 0.845,0.777 l 0,0.082 -0.685,0 0,-0.209 c 0,-0.094 -0.075,-0.159 -0.16,-0.159 C 0.065,-1.287 0,-1.214 0,-1.128 l 0,0.41 1.006,0 z"
             inkscape:connector-curvature="0" /></g><g
           transform="translate(25.8662,16.0137)"
           id="g80"><path
             id="path82"
             style="fill:#ffffff;fill-opacity:1;fill-rule:nonzero;stroke:none"
             d="m 0,0 c 0,0.09 0.064,0.161 0.158,0.161 0.086,0 0.161,-0.061 0.161,-0.155 l 0,-0.265 L 0,-0.259 0,0 Z m 1.006,-0.718 0,0.585 c 0,0.472 -0.265,0.786 -0.848,0.786 -0.528,0 -0.849,-0.267 -0.849,-0.786 l 0,-0.858 c 0,-0.522 0.321,-0.787 0.849,-0.787 0.574,0 0.836,0.315 0.846,0.777 l 0,0.082 -0.685,0 0,-0.209 C 0.319,-1.222 0.244,-1.287 0.158,-1.287 0.064,-1.287 0,-1.214 0,-1.128 l 0,0.41 1.006,0 z"
             inkscape:connector-curvature="0" /></g><g
           transform="translate(35.9619,15.1895)"
           id="g84"><path
             id="path86"
             style="fill:#ffffff;fill-opacity:1;fill-rule:nonzero;stroke:none"
             d="m 0,0 0,-0.167 c 0,-0.472 -0.311,-0.787 -0.892,-0.787 -0.529,0 -0.892,0.266 -0.892,0.787 l 0,0.858 c 0,0.519 0.363,0.787 0.892,0.787 C -0.311,1.478 0,1.163 0,0.691 l 0,-0.143 -0.741,0 0,0.273 c 0,0.093 -0.066,0.152 -0.151,0.152 -0.093,0 -0.156,-0.065 -0.156,-0.152 l 0,-1.12 c 0,-0.087 0.063,-0.154 0.156,-0.154 0.085,0 0.151,0.059 0.151,0.154 L -0.741,0 0,0 Z"
             inkscape:connector-curvature="0" /></g><g
           transform="translate(37.0742,17.3779)"
           id="g88"><path
             id="path90"
             style="fill:#ffffff;fill-opacity:1;fill-rule:nonzero;stroke:none"
             d="m 0,0 0,-0.914 0.003,0 c 0.077,0.088 0.246,0.209 0.48,0.209 0.406,0 0.575,-0.277 0.575,-0.609 0.004,-0.249 0,-1.748 0,-1.748 l -0.742,0 0,1.603 c 0,0.117 -0.072,0.179 -0.152,0.179 C 0.092,-1.28 0,-1.338 0,-1.452 l 0,-1.61 -0.735,0 0,3.062 L 0,0 Z"
             inkscape:connector-curvature="0" /></g><g
           transform="translate(39.2402,16.5928)"
           id="g92"><path
             id="path94"
             style="fill:#ffffff;fill-opacity:1;fill-rule:nonzero;stroke:none"
             d="m 0,0 0.017,-0.205 0.011,0 c 0.064,0.094 0.24,0.279 0.541,0.279 0.377,0 0.575,-0.275 0.575,-0.607 l 0,-1.755 -0.739,0 0,1.599 c 0.002,0.124 -0.074,0.185 -0.156,0.185 -0.075,0 -0.165,-0.061 -0.165,-0.176 l 0,-1.608 -0.737,0 0,2.288 L 0,0 Z"
             inkscape:connector-curvature="0" /></g><g
           transform="translate(41.8252,14.8906)"
           id="g96"><path
             id="path98"
             style="fill:#ffffff;fill-opacity:1;fill-rule:nonzero;stroke:none"
             d="M 0,0 C 0,-0.095 -0.087,-0.155 -0.166,-0.155 -0.263,-0.159 -0.335,-0.087 -0.335,0 l 0,1.123 c 0,0.088 0.072,0.157 0.169,0.157 C -0.087,1.28 0,1.213 0,1.12 L 0,0 Z m -0.166,1.776 c -0.532,0 -0.886,-0.267 -0.886,-0.786 l 0,-0.863 c 0,-0.519 0.361,-0.782 0.886,-0.782 0.583,0 0.889,0.315 0.889,0.787 l 0,0.858 c 0,0.472 -0.31,0.786 -0.889,0.786"
             inkscape:connector-curvature="0" /></g><g
           transform="translate(45.1631,14.8906)"
           id="g100"><path
             id="path102"
             style="fill:#ffffff;fill-opacity:1;fill-rule:nonzero;stroke:none"
             d="M 0,0 C 0,-0.095 -0.087,-0.155 -0.166,-0.155 -0.263,-0.159 -0.335,-0.087 -0.335,0 l 0,1.123 c 0,0.088 0.072,0.157 0.169,0.157 C -0.087,1.28 0,1.213 0,1.12 L 0,0 Z m -0.166,1.776 c -0.532,0 -0.887,-0.267 -0.887,-0.786 l 0,-0.863 c 0,-0.519 0.362,-0.782 0.887,-0.782 0.583,0 0.888,0.315 0.888,0.787 l 0,0.858 c 0,0.472 -0.31,0.786 -0.888,0.786"
             inkscape:connector-curvature="0" /></g><path
           id="path104"
           style="fill:#ffffff;fill-opacity:1;fill-rule:nonzero;stroke:none"
           d="m 42.945,17.378 0.76,0 0,-3.064 -0.76,0 0,3.064 z"
           inkscape:connector-curvature="0" /><g
           transform="translate(47.3281,15.0127)"
           id="g106"><path
             id="path108"
             style="fill:#ffffff;fill-opacity:1;fill-rule:nonzero;stroke:none"
             d="m 0,0 c 0,-0.115 -0.084,-0.166 -0.159,-0.166 -0.082,0 -0.157,0.051 -0.157,0.171 l 0,0.975 c 0,0.125 0.071,0.178 0.157,0.178 C -0.084,1.158 0,1.105 0,0.991 L 0,0 Z m 0.083,1.589 -0.01,-0.176 -0.014,0 c -0.042,0.048 -0.178,0.244 -0.513,0.244 -0.37,0 -0.572,-0.269 -0.572,-0.634 l 0,-1.002 c 0,-0.382 0.202,-0.619 0.564,-0.619 0.224,0 0.371,0.084 0.453,0.153 l 0.005,0 0,-0.373 c 0,-0.094 -0.073,-0.151 -0.155,-0.151 -0.091,0 -0.154,0.066 -0.154,0.151 l 0,0.044 -0.713,0 c 0.009,-0.428 0.311,-0.674 0.867,-0.674 0.646,0 0.87,0.309 0.87,0.778 l 0,2.259 -0.628,0 z"
             inkscape:connector-curvature="0" /></g><path
           id="path110"
           style="fill:#ffffff;fill-opacity:1;fill-rule:nonzero;stroke:none"
           d="m 48.507,16.597 0.753,0 0,-2.292 -0.753,0 0,2.292 z"
           inkscape:connector-curvature="0" /><path
           id="path112"
           style="fill:#ffffff;fill-opacity:1;fill-rule:nonzero;stroke:none"
           d="m 48.507,17.372 0.753,0 0,-0.551 -0.753,0 0,0.551 z"
           inkscape:connector-curvature="0" /><g
           transform="translate(50.3779,16.0137)"
           id="g114"><path
             id="path116"
             style="fill:#ffffff;fill-opacity:1;fill-rule:nonzero;stroke:none"
             d="m 0,0 c 0,0.09 0.063,0.161 0.157,0.161 0.081,0 0.161,-0.061 0.161,-0.155 l 0,-0.265 L 0,-0.259 0,0 Z m 1.006,-0.718 0,0.585 c 0,0.472 -0.268,0.786 -0.849,0.786 -0.527,0 -0.851,-0.267 -0.851,-0.786 l 0,-0.858 c 0,-0.522 0.324,-0.787 0.851,-0.787 0.573,0 0.834,0.315 0.844,0.777 l 0,0.082 -0.683,0 0,-0.209 c 0,-0.094 -0.08,-0.159 -0.161,-0.159 C 0.063,-1.287 0,-1.214 0,-1.128 l 0,0.41 1.006,0 z"
             inkscape:connector-curvature="0" /></g><g
           transform="translate(53.4365,15.8604)"
           id="g118"><path
             id="path120"
             style="fill:#ffffff;fill-opacity:1;fill-rule:nonzero;stroke:none"
             d="m 0,0 -0.336,0 -0.335,0 0,0.059 0,0.08 c 0,0.049 -0.016,0.098 -0.047,0.134 -0.034,0.038 -0.081,0.062 -0.144,0.062 -0.067,0 -0.118,-0.021 -0.142,-0.05 -0.034,-0.027 -0.042,-0.064 -0.042,-0.102 0,-0.085 0.059,-0.15 0.157,-0.211 0.101,-0.058 0.225,-0.115 0.354,-0.177 0.164,-0.078 0.314,-0.154 0.425,-0.26 0.11,-0.105 0.175,-0.238 0.175,-0.433 0,-0.241 -0.096,-0.425 -0.26,-0.547 -0.168,-0.118 -0.399,-0.18 -0.663,-0.18 -0.288,0 -0.513,0.075 -0.661,0.205 -0.152,0.135 -0.232,0.328 -0.232,0.568 l 0,0.044 0,0.042 0.34,0 0.338,0 0,-0.077 0,-0.106 c 0,-0.053 0.018,-0.108 0.051,-0.143 0.035,-0.037 0.088,-0.062 0.164,-0.062 0.059,0 0.106,0.02 0.14,0.052 0.033,0.034 0.054,0.079 0.054,0.132 0,0.072 -0.035,0.135 -0.106,0.191 -0.074,0.056 -0.184,0.111 -0.33,0.174 -0.203,0.078 -0.356,0.163 -0.454,0.277 -0.105,0.109 -0.157,0.254 -0.157,0.446 0,0.236 0.104,0.409 0.263,0.525 0.156,0.109 0.367,0.164 0.591,0.164 0.233,0 0.452,-0.055 0.608,-0.171 C -0.094,0.514 0,0.331 0,0.062 L 0,0.027 0,0 Z"
             inkscape:connector-curvature="0" /></g><g
           transform="translate(9.0195,44.8037)"
           id="g122"><path
             id="path124"
             style="fill:#003888;fill-opacity:1;fill-rule:nonzero;stroke:none"
             d="M 0,0 C 0,7.833 15.407,14.183 34.414,14.183 53.425,14.182 68.832,7.833 68.832,0 68.832,-7.83 53.425,-14.181 34.414,-14.181 15.407,-14.181 0,-7.83 0,0"
             inkscape:connector-curvature="0" /></g><g
           transform="translate(10.3862,44.8037)"
           id="g126"><path
             id="path128"
             style="fill:#ffffff;fill-opacity:1;fill-rule:nonzero;stroke:none"
             d="M 0,0 C 0,6.949 14.796,12.581 33.047,12.581 51.304,12.581 66.099,6.948 66.099,0 66.099,-6.948 51.304,-12.579 33.047,-12.579 14.796,-12.577 0,-6.945 0,0"
             inkscape:connector-curvature="0" /></g><g
           transform="translate(10.7383,44.8037)"
           id="g130"><path
             id="path132"
             style="fill:#003888;fill-opacity:1;fill-rule:nonzero;stroke:none"
             d="m 0,0 c 0,6.581 14.638,11.916 32.695,11.916 18.061,0 32.7,-5.335 32.7,-11.916 0,-6.58 -14.639,-11.916 -32.7,-11.916 C 14.638,-11.916 0,-6.58 0,0"
             inkscape:connector-curvature="0" /></g><g
           transform="translate(30.7778,42.2461)"
           id="g134"><path
             id="path136"
             style="fill:#ffffff;fill-opacity:1;fill-rule:evenodd;stroke:none"
             d="M 0,0 C -1.21,0.469 -0.001,2.698 0.431,3.438 0.89,4.206 1.897,5.428 2.732,5.384 3.015,5.369 3.35,5.112 3.321,4.767 3.203,3.399 1.208,-0.468 0,0 M 4.236,6.076 C 3.889,6.076 3.87,5.998 3.674,5.587 3.644,5.538 3.245,6.016 2.5,6.016 1.434,6.016 0.133,5.145 -0.665,4.258 -1.525,3.277 -2.157,1.979 -2.213,0.54 c -0.037,-0.917 0.324,-1.532 1.158,-1.751 0.741,-0.196 1.838,0.273 2.814,1.563 -0.04,-0.585 -0.079,-0.785 0,-1.016 0.091,-0.274 0.316,-0.566 0.702,-0.588 0.782,-0.04 1.532,0.596 2.072,1.213 0.187,0.222 0.561,0.65 0.576,0.998 0.005,0.095 -0.1,0.185 -0.19,0.185 -0.205,0 -0.847,-1.222 -1.245,-1.222 -0.129,0 -0.16,0.189 -0.156,0.301 0.012,0.301 0.236,0.914 0.311,1.182 L 4.18,2.54 C 4.318,3.076 5.264,5.498 5.276,5.782 5.284,6.035 4.841,6.076 4.727,6.076 l -0.491,0 z"
             inkscape:connector-curvature="0" /></g><g
           transform="translate(28.0825,49.707)"
           id="g138"><path
             id="path140"
             style="fill:#ffffff;fill-opacity:1;fill-rule:evenodd;stroke:none"
             d="M 0,0 C 0.313,-1.289 1.949,-0.651 2.094,0.113 2.304,1.25 1.221,1.726 -0.625,1.681 -3.829,1.603 -7.966,-0.82 -8.438,-5 c -0.252,-2.242 1.873,-3.828 3.602,-3.753 1.45,0.067 1.673,0.081 2.571,0.435 0.49,0.189 1.716,0.779 1.716,1.382 0,0.133 -0.134,0.246 -0.269,0.246 -0.268,0 -0.705,-0.514 -0.901,-0.615 -0.875,-0.451 -1.905,-0.79 -2.892,-0.589 -1.808,0.374 -2.179,2.441 -1.366,4.495 0.584,1.486 2.188,4.649 6.017,4.297 C 0.462,0.86 -0.078,0.323 0,0"
             inkscape:connector-curvature="0" /></g><g
           transform="translate(41.9736,46.8838)"
           id="g142"><path
             id="path144"
             style="fill:#ffffff;fill-opacity:1;fill-rule:evenodd;stroke:none"
             d="m 0,0 c 0.146,0 0.157,-0.161 0.147,-0.305 -0.006,-0.54 0.22,-0.466 0.612,-0.504 0.576,-0.057 0.959,0.41 1.012,1.112 0.045,0.605 -0.266,1.114 -0.735,1.114 -1.301,0 -2.198,-2.135 -2.884,-3.394 l 0.186,0.716 c 0.153,0.575 0.324,1.245 0.369,1.836 0.044,0.571 -0.188,0.842 -0.598,0.842 -0.677,0 -1.374,-0.621 -1.867,-1.242 -0.159,-0.191 -0.65,-0.781 -0.674,-1.083 -0.007,-0.113 0.059,-0.193 0.13,-0.193 0.266,0 0.887,1.267 1.31,1.267 0.108,0 0.135,-0.143 0.128,-0.254 -0.028,-0.319 -0.267,-1.099 -0.363,-1.404 l -1.127,-3.45 -0.108,-0.367 c -0.02,-0.079 -0.088,-0.318 -0.093,-0.38 -0.017,-0.242 0.275,-0.196 0.385,-0.196 l 0.325,0 c 0.192,0 0.682,-0.046 0.851,0.131 0.105,0.095 0.184,0.351 0.244,0.492 C -2.015,-2.606 -0.396,0 0,0"
             inkscape:connector-curvature="0" /></g><g
           transform="translate(48.6543,46.8428)"
           id="g146"><path
             id="path148"
             style="fill:#ffffff;fill-opacity:1;fill-rule:evenodd;stroke:none"
             d="M 0,0 C 0.145,0 0.157,-0.157 0.145,-0.303 0.14,-0.842 0.367,-0.769 0.757,-0.808 1.333,-0.864 1.718,-0.397 1.771,0.303 1.816,0.909 1.506,1.419 1.039,1.419 c -1.305,0 -2.201,-2.135 -2.889,-3.395 l 0.187,0.717 c 0.152,0.574 0.324,1.245 0.371,1.833 0.041,0.573 -0.19,0.845 -0.601,0.845 -0.673,0 -1.373,-0.622 -1.864,-1.242 -0.161,-0.191 -0.649,-0.781 -0.676,-1.084 -0.007,-0.112 0.058,-0.194 0.133,-0.194 0.263,0 0.887,1.271 1.306,1.271 0.109,0 0.135,-0.143 0.126,-0.255 -0.025,-0.319 -0.263,-1.101 -0.361,-1.403 l -1.124,-3.45 -0.113,-0.368 c -0.019,-0.082 -0.085,-0.32 -0.089,-0.382 -0.018,-0.24 0.273,-0.193 0.383,-0.193 l 0.326,0 c 0.194,0 0.682,-0.047 0.852,0.128 0.104,0.097 0.183,0.351 0.244,0.495 C -2.015,-2.604 -0.398,0 0,0"
             inkscape:connector-curvature="0" /></g><g
           transform="translate(53.0586,48.7822)"
           id="g150"><path
             id="path152"
             style="fill:#ffffff;fill-opacity:1;fill-rule:evenodd;stroke:none"
             d="M 0,0 C 0.545,0 1.042,0.469 1.09,1.101 1.133,1.664 0.811,2.036 0.326,2.036 -0.205,2.036 -0.704,1.54 -0.751,0.937 -0.795,0.372 -0.496,0 0,0 m -0.583,-4.408 c 0.186,0.514 0.581,1.848 0.731,2.329 0.426,1.362 0.306,1.362 -0.437,1.34 -0.731,-0.023 -1.004,-0.611 -1.014,-0.718 -0.019,-0.281 -1.807,-4.971 -1.864,-5.782 -0.045,-0.596 0.254,-0.86 0.709,-0.86 0.81,0 1.389,0.392 2.055,0.936 0.429,0.352 1.212,1.134 0.596,1.33 -0.166,0.053 -1.134,-1.424 -1.515,-1.155 -0.254,0.177 0.739,2.58 0.739,2.58"
             inkscape:connector-curvature="0" /></g><g
           transform="translate(66.3896,46.8428)"
           id="g154"><path
             id="path156"
             style="fill:#ffffff;fill-opacity:1;fill-rule:evenodd;stroke:none"
             d="m 0,0 c 0.146,0 0.158,-0.157 0.147,-0.303 -0.006,-0.541 0.22,-0.466 0.612,-0.505 0.576,-0.056 0.959,0.411 1.012,1.111 0.045,0.606 -0.264,1.116 -0.734,1.116 -1.302,0 -2.199,-2.136 -2.885,-3.396 l 0.186,0.718 c 0.152,0.574 0.324,1.245 0.369,1.833 0.043,0.573 -0.188,0.845 -0.599,0.845 -0.676,0 -1.374,-0.622 -1.865,-1.242 -0.159,-0.191 -0.651,-0.781 -0.673,-1.084 -0.008,-0.112 0.057,-0.194 0.128,-0.194 0.266,0 0.887,1.271 1.308,1.271 0.111,0 0.134,-0.143 0.127,-0.255 -0.023,-0.32 -0.265,-1.101 -0.36,-1.403 l -1.128,-3.45 -0.112,-0.368 c -0.016,-0.082 -0.082,-0.32 -0.089,-0.382 -0.016,-0.24 0.276,-0.193 0.386,-0.193 l 0.323,0 c 0.193,0 0.685,-0.047 0.853,0.128 0.104,0.097 0.184,0.351 0.244,0.492 C -2.017,-2.604 -0.396,0 0,0"
             inkscape:connector-curvature="0" /></g><g
           transform="translate(56.4448,44.4727)"
           id="g158"><path
             id="path160"
             style="fill:#ffffff;fill-opacity:1;fill-rule:evenodd;stroke:none"
             d="M 0,0 C 0.262,1.006 1.472,3.26 2.543,3.128 2.857,3.092 3.127,2.563 3.085,2.227 3.005,1.571 2.655,0.859 1.992,0.467 1.42,0.132 0.62,-0.043 0,0 M -0.156,-0.625 C 1.094,-0.664 4.65,-0.284 4.65,2.079 4.65,3.317 3.641,3.738 2.731,3.785 0.272,3.908 -2.03,1.598 -2.03,-1.152 c 0,-1.739 1.186,-2.637 2.552,-2.637 0.772,0 1.574,0.318 2.194,0.851 0.223,0.194 1.113,0.78 1.113,1.102 0,0.097 -0.131,0.311 -0.214,0.311 -0.247,0 -1.053,-1.144 -2.286,-1.288 -0.975,-0.112 -1.641,0.374 -1.641,1.29 l 0.156,0.898 z"
             inkscape:connector-curvature="0" /></g><g
           transform="translate(9.0195,44.8037)"
           id="g162"><path
             id="path164"
             style="fill:#152c73;fill-opacity:1;fill-rule:nonzero;stroke:none"
             d="M 0,0 C 0,7.833 15.407,14.183 34.415,14.183 53.425,14.182 68.833,7.833 68.833,0 68.833,-7.83 53.425,-14.181 34.415,-14.181 15.407,-14.181 0,-7.83 0,0"
             inkscape:connector-curvature="0" /></g><g
           transform="translate(10.3862,44.8037)"
           id="g166"><path
             id="path168"
             style="fill:#ffffff;fill-opacity:1;fill-rule:nonzero;stroke:none"
             d="M 0,0 C 0,6.949 14.796,12.581 33.048,12.581 51.304,12.581 66.099,6.948 66.099,0 66.099,-6.948 51.304,-12.579 33.048,-12.579 14.796,-12.577 0,-6.945 0,0"
             inkscape:connector-curvature="0" /></g><g
           transform="translate(10.7383,44.8037)"
           id="g170"><path
             id="path172"
             style="fill:#152c73;fill-opacity:1;fill-rule:nonzero;stroke:none"
             d="M 0,0 C 0,6.581 14.638,11.916 32.696,11.916 50.756,11.916 65.395,6.581 65.395,0 65.395,-6.58 50.756,-11.916 32.696,-11.916 14.638,-11.916 0,-6.58 0,0"
             inkscape:connector-curvature="0" /></g><g
           transform="translate(30.7778,42.2461)"
           id="g174"><path
             id="path176"
             style="fill:#ffffff;fill-opacity:1;fill-rule:evenodd;stroke:none"
             d="M 0,0 C -1.21,0.469 -0.001,2.698 0.431,3.438 0.89,4.206 1.898,5.428 2.733,5.384 3.015,5.369 3.35,5.112 3.321,4.767 3.204,3.399 1.208,-0.468 0,0 M 4.236,6.076 C 3.889,6.076 3.87,5.998 3.674,5.587 3.644,5.538 3.245,6.016 2.5,6.016 1.434,6.016 0.133,5.145 -0.664,4.258 -1.525,3.277 -2.157,1.979 -2.213,0.54 c -0.037,-0.917 0.324,-1.532 1.158,-1.751 0.741,-0.196 1.838,0.273 2.814,1.563 -0.04,-0.585 -0.079,-0.785 0,-1.016 0.091,-0.274 0.316,-0.566 0.703,-0.588 0.781,-0.04 1.531,0.596 2.071,1.213 0.187,0.222 0.561,0.65 0.576,0.998 0.005,0.095 -0.1,0.185 -0.19,0.185 -0.205,0 -0.847,-1.222 -1.245,-1.222 -0.129,0 -0.16,0.189 -0.156,0.301 0.012,0.301 0.236,0.914 0.311,1.182 L 4.18,2.54 C 4.318,3.076 5.264,5.498 5.276,5.782 5.284,6.035 4.841,6.076 4.727,6.076 l -0.491,0 z"
             inkscape:connector-curvature="0" /></g><g
           transform="translate(28.0825,49.707)"
           id="g178"><path
             id="path180"
             style="fill:#ffffff;fill-opacity:1;fill-rule:evenodd;stroke:none"
             d="M 0,0 C 0.313,-1.289 1.949,-0.651 2.094,0.113 2.304,1.25 1.221,1.726 -0.625,1.681 -3.829,1.603 -7.966,-0.82 -8.438,-5 c -0.25,-2.242 1.873,-3.828 3.602,-3.753 1.45,0.067 1.673,0.081 2.571,0.435 0.49,0.189 1.716,0.779 1.716,1.382 0,0.133 -0.134,0.246 -0.269,0.246 -0.268,0 -0.705,-0.514 -0.901,-0.615 -0.875,-0.451 -1.905,-0.79 -2.892,-0.589 -1.808,0.374 -2.179,2.441 -1.366,4.495 0.584,1.486 2.188,4.649 6.017,4.297 C 0.462,0.86 -0.078,0.323 0,0"
             inkscape:connector-curvature="0" /></g><g
           transform="translate(41.9736,46.8838)"
           id="g182"><path
             id="path184"
             style="fill:#ffffff;fill-opacity:1;fill-rule:evenodd;stroke:none"
             d="m 0,0 c 0.146,0 0.157,-0.161 0.147,-0.305 -0.006,-0.54 0.22,-0.466 0.612,-0.504 0.576,-0.057 0.959,0.41 1.012,1.112 0.045,0.605 -0.266,1.114 -0.735,1.114 -1.3,0 -2.198,-2.135 -2.884,-3.394 l 0.186,0.716 c 0.153,0.575 0.324,1.245 0.369,1.836 0.044,0.571 -0.188,0.842 -0.598,0.842 -0.677,0 -1.374,-0.621 -1.867,-1.242 -0.159,-0.191 -0.65,-0.781 -0.674,-1.083 -0.007,-0.113 0.059,-0.193 0.13,-0.193 0.266,0 0.887,1.267 1.31,1.267 0.108,0 0.135,-0.143 0.128,-0.254 -0.028,-0.319 -0.267,-1.099 -0.363,-1.404 l -1.127,-3.45 -0.108,-0.367 c -0.02,-0.079 -0.088,-0.318 -0.093,-0.38 -0.017,-0.242 0.275,-0.196 0.385,-0.196 l 0.325,0 c 0.192,0 0.683,-0.046 0.851,0.131 0.105,0.095 0.184,0.351 0.244,0.492 C -2.015,-2.606 -0.396,0 0,0"
             inkscape:connector-curvature="0" /></g><g
           transform="translate(48.6543,46.8428)"
           id="g186"><path
             id="path188"
             style="fill:#ffffff;fill-opacity:1;fill-rule:evenodd;stroke:none"
             d="M 0,0 C 0.145,0 0.157,-0.157 0.145,-0.303 0.14,-0.842 0.367,-0.769 0.757,-0.808 1.333,-0.864 1.718,-0.397 1.771,0.303 1.816,0.909 1.506,1.419 1.039,1.419 c -1.305,0 -2.201,-2.135 -2.889,-3.395 l 0.187,0.717 c 0.152,0.574 0.324,1.245 0.371,1.833 0.041,0.573 -0.19,0.845 -0.601,0.845 -0.673,0 -1.371,-0.622 -1.864,-1.242 -0.16,-0.191 -0.649,-0.781 -0.676,-1.084 -0.007,-0.112 0.059,-0.194 0.133,-0.194 0.263,0 0.887,1.271 1.308,1.271 0.107,0 0.133,-0.143 0.124,-0.255 -0.025,-0.319 -0.263,-1.101 -0.361,-1.403 l -1.124,-3.45 -0.113,-0.368 c -0.019,-0.082 -0.085,-0.32 -0.087,-0.382 -0.02,-0.24 0.271,-0.193 0.381,-0.193 l 0.327,0 c 0.193,0 0.682,-0.047 0.851,0.128 0.104,0.097 0.183,0.351 0.244,0.495 C -2.015,-2.604 -0.398,0 0,0"
             inkscape:connector-curvature="0" /></g><g
           transform="translate(53.0586,48.7822)"
           id="g190"><path
             id="path192"
             style="fill:#ffffff;fill-opacity:1;fill-rule:evenodd;stroke:none"
             d="M 0,0 C 0.545,0 1.042,0.469 1.09,1.101 1.133,1.664 0.811,2.036 0.326,2.036 -0.205,2.036 -0.704,1.54 -0.75,0.937 -0.795,0.372 -0.496,0 0,0 m -0.583,-4.408 c 0.186,0.514 0.581,1.848 0.731,2.329 0.426,1.362 0.307,1.362 -0.437,1.34 -0.731,-0.023 -1.004,-0.611 -1.014,-0.718 -0.019,-0.281 -1.807,-4.971 -1.864,-5.782 -0.045,-0.596 0.254,-0.86 0.709,-0.86 0.81,0 1.389,0.392 2.055,0.936 0.429,0.352 1.212,1.134 0.596,1.33 -0.166,0.053 -1.134,-1.424 -1.515,-1.155 -0.254,0.177 0.739,2.58 0.739,2.58"
             inkscape:connector-curvature="0" /></g><g
           transform="translate(66.3896,46.8428)"
           id="g194"><path
             id="path196"
             style="fill:#ffffff;fill-opacity:1;fill-rule:evenodd;stroke:none"
             d="m 0,0 c 0.146,0 0.158,-0.157 0.147,-0.303 -0.006,-0.541 0.22,-0.466 0.612,-0.505 0.576,-0.056 0.959,0.411 1.012,1.111 0.045,0.606 -0.264,1.116 -0.734,1.116 -1.302,0 -2.199,-2.136 -2.885,-3.396 l 0.186,0.718 c 0.152,0.574 0.324,1.245 0.369,1.833 0.043,0.573 -0.188,0.845 -0.599,0.845 -0.676,0 -1.374,-0.622 -1.865,-1.242 -0.159,-0.191 -0.65,-0.781 -0.673,-1.084 -0.008,-0.112 0.057,-0.194 0.128,-0.194 0.266,0 0.887,1.271 1.308,1.271 0.111,0 0.134,-0.143 0.127,-0.255 -0.023,-0.32 -0.265,-1.101 -0.36,-1.403 l -1.126,-3.45 -0.114,-0.368 c -0.016,-0.082 -0.082,-0.32 -0.086,-0.382 -0.019,-0.24 0.273,-0.193 0.383,-0.193 l 0.323,0 c 0.193,0 0.685,-0.047 0.853,0.128 0.104,0.097 0.184,0.351 0.244,0.492 C -2.017,-2.604 -0.396,0 0,0"
             inkscape:connector-curvature="0" /></g><g
           transform="translate(56.4448,44.4727)"
           id="g198"><path
             id="path200"
             style="fill:#ffffff;fill-opacity:1;fill-rule:evenodd;stroke:none"
             d="M 0,0 C 0.262,1.006 1.472,3.26 2.543,3.128 2.857,3.092 3.127,2.563 3.085,2.227 3.005,1.571 2.656,0.859 1.992,0.467 1.42,0.132 0.62,-0.043 0,0 M -0.156,-0.625 C 1.094,-0.664 4.65,-0.284 4.65,2.079 4.65,3.317 3.641,3.738 2.731,3.785 0.272,3.908 -2.03,1.598 -2.03,-1.152 c 0,-1.739 1.186,-2.637 2.552,-2.637 0.772,0 1.574,0.318 2.194,0.851 0.223,0.194 1.113,0.78 1.113,1.102 0,0.097 -0.131,0.311 -0.214,0.311 -0.247,0 -1.053,-1.144 -2.286,-1.288 -0.975,-0.112 -1.641,0.374 -1.641,1.29 l 0.156,0.898 z"
             inkscape:connector-curvature="0" /></g></g></g></g></svg>