<?xml version="1.0" encoding="UTF-8" standalone="no"?>
<!-- Created with Inkscape (http://www.inkscape.org/) -->

<svg
   id="svg2"
   version="1.1"
   inkscape:version="1.3.1 (9b9bdc1480, 2023-11-25, custom)"
   xml:space="preserve"
   width="30.674629mm"
   height="24.703405mm"
   viewBox="0 0 108.68963 87.531754"
   sodipodi:docname="CarrierOver.svg"
   xmlns:inkscape="http://www.inkscape.org/namespaces/inkscape"
   xmlns:sodipodi="http://sodipodi.sourceforge.net/DTD/sodipodi-0.dtd"
   xmlns="http://www.w3.org/2000/svg"
   xmlns:svg="http://www.w3.org/2000/svg"
   xmlns:rdf="http://www.w3.org/1999/02/22-rdf-syntax-ns#"
   xmlns:cc="http://creativecommons.org/ns#"
   xmlns:dc="http://purl.org/dc/elements/1.1/"><metadata
     id="metadata8"><rdf:RDF><cc:Work
         rdf:about=""><dc:format>image/svg+xml</dc:format><dc:type
           rdf:resource="http://purl.org/dc/dcmitype/StillImage" /></cc:Work></rdf:RDF></metadata><defs
     id="defs6"><clipPath
       clipPathUnits="userSpaceOnUse"
       id="clipPath20"><path
         d="m 0,70.025 86.952,0 L 86.952,0 0,0 0,70.025 Z"
         id="path22"
         inkscape:connector-curvature="0" /></clipPath></defs><sodipodi:namedview
     pagecolor="#ffffff"
     bordercolor="#666666"
     borderopacity="1"
     objecttolerance="10"
     gridtolerance="10"
     guidetolerance="10"
     inkscape:pageopacity="0"
     inkscape:pageshadow="2"
     inkscape:window-width="1296"
     inkscape:window-height="704"
     id="namedview4"
     showgrid="false"
     units="mm"
     inkscape:zoom="7.6259048"
     inkscape:cx="49.305625"
     inkscape:cy="36.979218"
     inkscape:window-x="0"
     inkscape:window-y="0"
     inkscape:window-maximized="1"
     inkscape:current-layer="g10"
     inkscape:showpageshadow="2"
     inkscape:pagecheckerboard="0"
     inkscape:deskcolor="#d1d1d1"
     inkscape:document-units="mm" /><g
     id="g10"
     inkscape:groupmode="layer"
     inkscape:label="Carrier Transicold_Minimum_4businessCard only"
     transform="matrix(1.25,0,0,-1.25,0,87.53175)"><g
       id="g12"
       transform="translate(12.0645,22.2539)"
       style="fill:#ffffff"><path
         d="m 0,0 -1.471,0 1.069,3.934 -1.091,0 0.321,1.17 3.684,0 -0.321,-1.17 -1.122,0 L 0,0 Z"
         style="fill:#ffffff;fill-opacity:1;fill-rule:nonzero;stroke:none"
         id="path14"
         inkscape:connector-curvature="0" /></g><g
       id="g24"
       transform="translate(18.3047,25.2441)"
       style="fill:#ffffff"><path
         d="M 0,0 0.571,0 C 0.87,0 1.01,0.022 1.179,0.122 1.326,0.214 1.436,0.39 1.454,0.558 1.502,1.03 0.938,1.03 0.81,1.03 L 0.274,1.03 0,0 Z m 2.065,-2.99 -1.504,0 -0.246,1.929 -0.602,0 -0.531,-1.929 -1.449,0 1.39,5.088 2.219,0 C 2.028,2.098 2.324,1.951 2.509,1.814 2.875,1.532 3.002,1.067 2.955,0.618 2.905,0.145 2.668,-0.289 2.313,-0.565 2.089,-0.731 1.898,-0.802 1.731,-0.861 L 2.065,-2.99 Z"
         style="fill:#ffffff;fill-opacity:1;fill-rule:nonzero;stroke:none"
         id="path26"
         inkscape:connector-curvature="0" /></g><g
       id="g28"
       transform="translate(26.3164,24.3428)"
       style="fill:#ffffff"><path
         d="M 0,0 -0.051,1.472 -0.87,0 0,0 Z m -1.383,-1.051 -0.583,-1.038 -1.258,0 2.89,5.088 1.595,0 0.252,-5.088 -1.496,0 -0.037,1.038 -1.363,0 z"
         style="fill:#ffffff;fill-opacity:1;fill-rule:nonzero;stroke:none"
         id="path30"
         inkscape:connector-curvature="0" /></g><g
       id="g32"
       transform="translate(34.9526,22.2539)"
       style="fill:#ffffff"><path
         d="M 0,0 -1.13,0 -1.9,1.954 C -2.042,2.327 -2.221,2.831 -2.27,3.219 -2.269,3.096 -2.279,2.93 -2.393,2.496 L -3.076,0 l -1.235,0 1.382,5.088 1.373,0 0.433,-1.177 c 0.212,-0.586 0.478,-1.333 0.564,-1.814 0,0.078 0.003,0.162 0.008,0.23 0.022,0.206 0.134,0.617 0.197,0.83 l 0.522,1.931 1.213,0 L 0,0 Z"
         style="fill:#ffffff;fill-opacity:1;fill-rule:nonzero;stroke:none"
         id="path34"
         inkscape:connector-curvature="0" /></g><g
       id="g36"
       transform="translate(41.8955,25.832)"
       style="fill:#ffffff"><path
         d="m 0,0 c -0.019,0.113 -0.04,0.213 -0.195,0.328 -0.191,0.137 -0.394,0.159 -0.525,0.159 -0.413,0 -0.519,-0.214 -0.531,-0.336 -0.018,-0.175 0.146,-0.283 0.425,-0.38 L 0.012,-0.534 C 0.526,-0.725 0.98,-1.183 0.907,-1.885 0.814,-2.776 0.011,-3.652 -1.521,-3.652 c -0.496,0 -1.149,0.09 -1.664,0.494 -0.393,0.312 -0.495,0.67 -0.567,0.922 l 1.496,0.29 c 0.05,-0.175 0.164,-0.542 0.881,-0.542 0.472,0 0.615,0.206 0.633,0.374 0.02,0.199 -0.145,0.281 -0.498,0.413 l -0.519,0.2 c -0.66,0.257 -0.957,0.479 -1.093,0.859 -0.076,0.216 -0.076,0.427 -0.062,0.579 0.053,0.49 0.435,1.658 2.219,1.658 0.793,0 1.213,-0.209 1.482,-0.414 0.415,-0.32 0.497,-0.64 0.56,-0.848 L 0,0 Z"
         style="fill:#ffffff;fill-opacity:1;fill-rule:nonzero;stroke:none"
         id="path38"
         inkscape:connector-curvature="0" /></g><g
       id="g40"
       transform="translate(46.7129,22.2539)"
       style="fill:#ffffff"><path
         d="m 0,0 -1.444,0 1.385,5.088 1.44,0 L 0,0 Z"
         style="fill:#ffffff;fill-opacity:1;fill-rule:nonzero;stroke:none"
         id="path42"
         inkscape:connector-curvature="0" /></g><g
       id="g44"
       transform="translate(54.7017,24.0459)"
       style="fill:#ffffff"><path
         d="m 0,0 c -0.134,-0.328 -0.316,-0.754 -0.771,-1.198 -0.562,-0.54 -1.121,-0.701 -1.701,-0.701 -1.387,0 -1.977,1.068 -1.845,2.319 0.125,1.183 1,2.99 2.923,2.99 0.968,0 1.909,-0.566 1.789,-1.975 L -1.049,1.327 c 0.032,0.298 0.082,0.931 -0.513,0.931 -0.433,0 -0.646,-0.359 -0.753,-0.571 -0.234,-0.474 -0.426,-1.291 -0.457,-1.586 -0.017,-0.163 -0.082,-0.786 0.526,-0.786 0.467,0 0.684,0.336 0.9,0.862 L 0,0 Z"
         style="fill:#ffffff;fill-opacity:1;fill-rule:nonzero;stroke:none"
         id="path46"
         inkscape:connector-curvature="0" /></g><g
       id="g48"
       transform="translate(60.9424,25.4971)"
       style="fill:#ffffff"><path
         d="m 0,0 c 0.024,0.249 0.015,0.793 -0.574,0.793 -0.335,0 -0.576,-0.199 -0.777,-0.565 -0.261,-0.473 -0.457,-1.389 -0.484,-1.633 -0.018,-0.175 -0.081,-0.778 0.566,-0.778 0.604,0 0.857,0.579 1.112,1.495 C -0.143,-0.65 -0.024,-0.223 0,0 m -1.405,-3.366 c -1.153,0 -2.149,0.758 -1.99,2.282 0.16,1.504 1.238,3.059 2.999,3.059 1.258,0 2.097,-0.876 1.952,-2.257 -0.175,-1.656 -1.337,-3.084 -2.961,-3.084"
         style="fill:#ffffff;fill-opacity:1;fill-rule:nonzero;stroke:none"
         id="path50"
         inkscape:connector-curvature="0" /></g><g
       id="g52"
       transform="translate(68.2256,22.2539)"
       style="fill:#ffffff"><path
         d="m 0,0 -3.468,0 1.382,5.088 1.54,0 -1.055,-3.867 1.937,0 L 0,0 Z"
         style="fill:#ffffff;fill-opacity:1;fill-rule:nonzero;stroke:none"
         id="path54"
         inkscape:connector-curvature="0" /></g><g
       id="g56"
       transform="translate(72.9624,23.3906)"
       style="fill:#ffffff"><path
         d="M 0,0 0.342,0 C 0.519,0 0.998,0 1.291,0.245 1.634,0.534 1.883,1.105 1.948,1.726 2.008,2.28 1.894,2.853 1.215,2.853 l -0.437,0 L 0,0 Z m -0.441,3.951 1.693,0 C 1.853,3.951 2.455,3.927 2.955,3.454 3.419,3.003 3.542,2.355 3.469,1.67 3.367,0.694 2.892,-0.192 2.083,-0.717 1.459,-1.12 0.887,-1.137 0.031,-1.137 l -1.861,0 1.389,5.088 z"
         style="fill:#ffffff;fill-opacity:1;fill-rule:nonzero;stroke:none"
         id="path58"
         inkscape:connector-curvature="0" /></g><g
       id="g122"
       transform="translate(9.0195,44.8037)"><path
         d="M 0,0 C 0,7.833 15.407,14.183 34.414,14.183 53.425,14.182 68.832,7.833 68.832,0 68.832,-7.83 53.425,-14.181 34.414,-14.181 15.407,-14.181 0,-7.83 0,0"
         style="fill:#003888;fill-opacity:1;fill-rule:nonzero;stroke:none"
         id="path124"
         inkscape:connector-curvature="0" /></g><g
       id="g126"
       transform="translate(10.3862,44.8037)"><path
         d="M 0,0 C 0,6.949 14.796,12.581 33.047,12.581 51.304,12.581 66.099,6.948 66.099,0 66.099,-6.948 51.304,-12.579 33.047,-12.579 14.796,-12.577 0,-6.945 0,0"
         style="fill:#ffffff;fill-opacity:1;fill-rule:nonzero;stroke:none"
         id="path128"
         inkscape:connector-curvature="0" /></g><g
       id="g130"
       transform="translate(10.7383,44.8037)"><path
         d="m 0,0 c 0,6.581 14.638,11.916 32.695,11.916 18.061,0 32.7,-5.335 32.7,-11.916 0,-6.58 -14.639,-11.916 -32.7,-11.916 C 14.638,-11.916 0,-6.58 0,0"
         style="fill:#003888;fill-opacity:1;fill-rule:nonzero;stroke:none"
         id="path132"
         inkscape:connector-curvature="0" /></g><g
       id="g134"
       transform="translate(30.7778,42.2461)"><path
         d="M 0,0 C -1.21,0.469 -0.001,2.698 0.431,3.438 0.89,4.206 1.897,5.428 2.732,5.384 3.015,5.369 3.35,5.112 3.321,4.767 3.203,3.399 1.208,-0.468 0,0 M 4.236,6.076 C 3.889,6.076 3.87,5.998 3.674,5.587 3.644,5.538 3.245,6.016 2.5,6.016 1.434,6.016 0.133,5.145 -0.665,4.258 -1.525,3.277 -2.157,1.979 -2.213,0.54 c -0.037,-0.917 0.324,-1.532 1.158,-1.751 0.741,-0.196 1.838,0.273 2.814,1.563 -0.04,-0.585 -0.079,-0.785 0,-1.016 0.091,-0.274 0.316,-0.566 0.702,-0.588 0.782,-0.04 1.532,0.596 2.072,1.213 0.187,0.222 0.561,0.65 0.576,0.998 0.005,0.095 -0.1,0.185 -0.19,0.185 -0.205,0 -0.847,-1.222 -1.245,-1.222 -0.129,0 -0.16,0.189 -0.156,0.301 0.012,0.301 0.236,0.914 0.311,1.182 L 4.18,2.54 C 4.318,3.076 5.264,5.498 5.276,5.782 5.284,6.035 4.841,6.076 4.727,6.076 l -0.491,0 z"
         style="fill:#ffffff;fill-opacity:1;fill-rule:evenodd;stroke:none"
         id="path136"
         inkscape:connector-curvature="0" /></g><g
       id="g138"
       transform="translate(28.0825,49.707)"><path
         d="M 0,0 C 0.313,-1.289 1.949,-0.651 2.094,0.113 2.304,1.25 1.221,1.726 -0.625,1.681 -3.829,1.603 -7.966,-0.82 -8.438,-5 c -0.252,-2.242 1.873,-3.828 3.602,-3.753 1.45,0.067 1.673,0.081 2.571,0.435 0.49,0.189 1.716,0.779 1.716,1.382 0,0.133 -0.134,0.246 -0.269,0.246 -0.268,0 -0.705,-0.514 -0.901,-0.615 -0.875,-0.451 -1.905,-0.79 -2.892,-0.589 -1.808,0.374 -2.179,2.441 -1.366,4.495 0.584,1.486 2.188,4.649 6.017,4.297 C 0.462,0.86 -0.078,0.323 0,0"
         style="fill:#ffffff;fill-opacity:1;fill-rule:evenodd;stroke:none"
         id="path140"
         inkscape:connector-curvature="0" /></g><g
       id="g142"
       transform="translate(41.9736,46.8838)"><path
         d="m 0,0 c 0.146,0 0.157,-0.161 0.147,-0.305 -0.006,-0.54 0.22,-0.466 0.612,-0.504 0.576,-0.057 0.959,0.41 1.012,1.112 0.045,0.605 -0.266,1.114 -0.735,1.114 -1.301,0 -2.198,-2.135 -2.884,-3.394 l 0.186,0.716 c 0.153,0.575 0.324,1.245 0.369,1.836 0.044,0.571 -0.188,0.842 -0.598,0.842 -0.677,0 -1.374,-0.621 -1.867,-1.242 -0.159,-0.191 -0.65,-0.781 -0.674,-1.083 -0.007,-0.113 0.059,-0.193 0.13,-0.193 0.266,0 0.887,1.267 1.31,1.267 0.108,0 0.135,-0.143 0.128,-0.254 -0.028,-0.319 -0.267,-1.099 -0.363,-1.404 l -1.127,-3.45 -0.108,-0.367 c -0.02,-0.079 -0.088,-0.318 -0.093,-0.38 -0.017,-0.242 0.275,-0.196 0.385,-0.196 l 0.325,0 c 0.192,0 0.682,-0.046 0.851,0.131 0.105,0.095 0.184,0.351 0.244,0.492 C -2.015,-2.606 -0.396,0 0,0"
         style="fill:#ffffff;fill-opacity:1;fill-rule:evenodd;stroke:none"
         id="path144"
         inkscape:connector-curvature="0" /></g><g
       id="g146"
       transform="translate(48.6543,46.8428)"><path
         d="M 0,0 C 0.145,0 0.157,-0.157 0.145,-0.303 0.14,-0.842 0.367,-0.769 0.757,-0.808 1.333,-0.864 1.718,-0.397 1.771,0.303 1.816,0.909 1.506,1.419 1.039,1.419 c -1.305,0 -2.201,-2.135 -2.889,-3.395 l 0.187,0.717 c 0.152,0.574 0.324,1.245 0.371,1.833 0.041,0.573 -0.19,0.845 -0.601,0.845 -0.673,0 -1.373,-0.622 -1.864,-1.242 -0.161,-0.191 -0.649,-0.781 -0.676,-1.084 -0.007,-0.112 0.058,-0.194 0.133,-0.194 0.263,0 0.887,1.271 1.306,1.271 0.109,0 0.135,-0.143 0.126,-0.255 -0.025,-0.319 -0.263,-1.101 -0.361,-1.403 l -1.124,-3.45 -0.113,-0.368 c -0.019,-0.082 -0.085,-0.32 -0.089,-0.382 -0.018,-0.24 0.273,-0.193 0.383,-0.193 l 0.326,0 c 0.194,0 0.682,-0.047 0.852,0.128 0.104,0.097 0.183,0.351 0.244,0.495 C -2.015,-2.604 -0.398,0 0,0"
         style="fill:#ffffff;fill-opacity:1;fill-rule:evenodd;stroke:none"
         id="path148"
         inkscape:connector-curvature="0" /></g><g
       id="g150"
       transform="translate(53.0586,48.7822)"><path
         d="M 0,0 C 0.545,0 1.042,0.469 1.09,1.101 1.133,1.664 0.811,2.036 0.326,2.036 -0.205,2.036 -0.704,1.54 -0.751,0.937 -0.795,0.372 -0.496,0 0,0 m -0.583,-4.408 c 0.186,0.514 0.581,1.848 0.731,2.329 0.426,1.362 0.306,1.362 -0.437,1.34 -0.731,-0.023 -1.004,-0.611 -1.014,-0.718 -0.019,-0.281 -1.807,-4.971 -1.864,-5.782 -0.045,-0.596 0.254,-0.86 0.709,-0.86 0.81,0 1.389,0.392 2.055,0.936 0.429,0.352 1.212,1.134 0.596,1.33 -0.166,0.053 -1.134,-1.424 -1.515,-1.155 -0.254,0.177 0.739,2.58 0.739,2.58"
         style="fill:#ffffff;fill-opacity:1;fill-rule:evenodd;stroke:none"
         id="path152"
         inkscape:connector-curvature="0" /></g><g
       id="g154"
       transform="translate(66.3896,46.8428)"><path
         d="m 0,0 c 0.146,0 0.158,-0.157 0.147,-0.303 -0.006,-0.541 0.22,-0.466 0.612,-0.505 0.576,-0.056 0.959,0.411 1.012,1.111 0.045,0.606 -0.264,1.116 -0.734,1.116 -1.302,0 -2.199,-2.136 -2.885,-3.396 l 0.186,0.718 c 0.152,0.574 0.324,1.245 0.369,1.833 0.043,0.573 -0.188,0.845 -0.599,0.845 -0.676,0 -1.374,-0.622 -1.865,-1.242 -0.159,-0.191 -0.651,-0.781 -0.673,-1.084 -0.008,-0.112 0.057,-0.194 0.128,-0.194 0.266,0 0.887,1.271 1.308,1.271 0.111,0 0.134,-0.143 0.127,-0.255 -0.023,-0.32 -0.265,-1.101 -0.36,-1.403 l -1.128,-3.45 -0.112,-0.368 c -0.016,-0.082 -0.082,-0.32 -0.089,-0.382 -0.016,-0.24 0.276,-0.193 0.386,-0.193 l 0.323,0 c 0.193,0 0.685,-0.047 0.853,0.128 0.104,0.097 0.184,0.351 0.244,0.492 C -2.017,-2.604 -0.396,0 0,0"
         style="fill:#ffffff;fill-opacity:1;fill-rule:evenodd;stroke:none"
         id="path156"
         inkscape:connector-curvature="0" /></g><g
       id="g158"
       transform="translate(56.4448,44.4727)"><path
         d="M 0,0 C 0.262,1.006 1.472,3.26 2.543,3.128 2.857,3.092 3.127,2.563 3.085,2.227 3.005,1.571 2.655,0.859 1.992,0.467 1.42,0.132 0.62,-0.043 0,0 M -0.156,-0.625 C 1.094,-0.664 4.65,-0.284 4.65,2.079 4.65,3.317 3.641,3.738 2.731,3.785 0.272,3.908 -2.03,1.598 -2.03,-1.152 c 0,-1.739 1.186,-2.637 2.552,-2.637 0.772,0 1.574,0.318 2.194,0.851 0.223,0.194 1.113,0.78 1.113,1.102 0,0.097 -0.131,0.311 -0.214,0.311 -0.247,0 -1.053,-1.144 -2.286,-1.288 -0.975,-0.112 -1.641,0.374 -1.641,1.29 l 0.156,0.898 z"
         style="fill:#ffffff;fill-opacity:1;fill-rule:evenodd;stroke:none"
         id="path160"
         inkscape:connector-curvature="0" /></g><g
       id="g162"
       transform="translate(9.0195,44.8037)"
       style="fill:#ffffff"><path
         d="M 0,0 C 0,7.833 15.407,14.183 34.415,14.183 53.425,14.182 68.833,7.833 68.833,0 68.833,-7.83 53.425,-14.181 34.415,-14.181 15.407,-14.181 0,-7.83 0,0"
         style="fill:#ffffff;fill-opacity:1;fill-rule:nonzero;stroke:none"
         id="path164"
         inkscape:connector-curvature="0" /></g><g
       id="g166"
       transform="translate(10.3862,44.8037)"
       style="fill:#000000"><path
         d="M 0,0 C 0,6.949 14.796,12.581 33.048,12.581 51.304,12.581 66.099,6.948 66.099,0 66.099,-6.948 51.304,-12.579 33.048,-12.579 14.796,-12.577 0,-6.945 0,0"
         style="fill:#000000;fill-opacity:1;fill-rule:nonzero;stroke:none"
         id="path168"
         inkscape:connector-curvature="0" /></g><g
       id="g170"
       transform="translate(10.7383,44.8037)"
       style="fill:#ffffff"><path
         d="M 0,0 C 0,6.581 14.638,11.916 32.696,11.916 50.756,11.916 65.395,6.581 65.395,0 65.395,-6.58 50.756,-11.916 32.696,-11.916 14.638,-11.916 0,-6.58 0,0"
         style="fill:#ffffff;fill-opacity:1;fill-rule:nonzero;stroke:none"
         id="path172"
         inkscape:connector-curvature="0" /></g><g
       id="g174"
       transform="translate(30.7778,42.2461)"
       style="fill:#000000"><path
         d="M 0,0 C -1.21,0.469 -0.001,2.698 0.431,3.438 0.89,4.206 1.898,5.428 2.733,5.384 3.015,5.369 3.35,5.112 3.321,4.767 3.204,3.399 1.208,-0.468 0,0 M 4.236,6.076 C 3.889,6.076 3.87,5.998 3.674,5.587 3.644,5.538 3.245,6.016 2.5,6.016 1.434,6.016 0.133,5.145 -0.664,4.258 -1.525,3.277 -2.157,1.979 -2.213,0.54 c -0.037,-0.917 0.324,-1.532 1.158,-1.751 0.741,-0.196 1.838,0.273 2.814,1.563 -0.04,-0.585 -0.079,-0.785 0,-1.016 0.091,-0.274 0.316,-0.566 0.703,-0.588 0.781,-0.04 1.531,0.596 2.071,1.213 0.187,0.222 0.561,0.65 0.576,0.998 0.005,0.095 -0.1,0.185 -0.19,0.185 -0.205,0 -0.847,-1.222 -1.245,-1.222 -0.129,0 -0.16,0.189 -0.156,0.301 0.012,0.301 0.236,0.914 0.311,1.182 L 4.18,2.54 C 4.318,3.076 5.264,5.498 5.276,5.782 5.284,6.035 4.841,6.076 4.727,6.076 l -0.491,0 z"
         style="fill:#000000;fill-opacity:1;fill-rule:evenodd;stroke:none"
         id="path176"
         inkscape:connector-curvature="0" /></g><g
       id="g178"
       transform="translate(28.0825,49.707)"
       style="fill:#000000"><path
         d="M 0,0 C 0.313,-1.289 1.949,-0.651 2.094,0.113 2.304,1.25 1.221,1.726 -0.625,1.681 -3.829,1.603 -7.966,-0.82 -8.438,-5 c -0.25,-2.242 1.873,-3.828 3.602,-3.753 1.45,0.067 1.673,0.081 2.571,0.435 0.49,0.189 1.716,0.779 1.716,1.382 0,0.133 -0.134,0.246 -0.269,0.246 -0.268,0 -0.705,-0.514 -0.901,-0.615 -0.875,-0.451 -1.905,-0.79 -2.892,-0.589 -1.808,0.374 -2.179,2.441 -1.366,4.495 0.584,1.486 2.188,4.649 6.017,4.297 C 0.462,0.86 -0.078,0.323 0,0"
         style="fill:#000000;fill-opacity:1;fill-rule:evenodd;stroke:none"
         id="path180"
         inkscape:connector-curvature="0" /></g><g
       id="g182"
       transform="translate(41.9736,46.8838)"
       style="fill:#000000"><path
         d="m 0,0 c 0.146,0 0.157,-0.161 0.147,-0.305 -0.006,-0.54 0.22,-0.466 0.612,-0.504 0.576,-0.057 0.959,0.41 1.012,1.112 0.045,0.605 -0.266,1.114 -0.735,1.114 -1.3,0 -2.198,-2.135 -2.884,-3.394 l 0.186,0.716 c 0.153,0.575 0.324,1.245 0.369,1.836 0.044,0.571 -0.188,0.842 -0.598,0.842 -0.677,0 -1.374,-0.621 -1.867,-1.242 -0.159,-0.191 -0.65,-0.781 -0.674,-1.083 -0.007,-0.113 0.059,-0.193 0.13,-0.193 0.266,0 0.887,1.267 1.31,1.267 0.108,0 0.135,-0.143 0.128,-0.254 -0.028,-0.319 -0.267,-1.099 -0.363,-1.404 l -1.127,-3.45 -0.108,-0.367 c -0.02,-0.079 -0.088,-0.318 -0.093,-0.38 -0.017,-0.242 0.275,-0.196 0.385,-0.196 l 0.325,0 c 0.192,0 0.683,-0.046 0.851,0.131 0.105,0.095 0.184,0.351 0.244,0.492 C -2.015,-2.606 -0.396,0 0,0"
         style="fill:#000000;fill-opacity:1;fill-rule:evenodd;stroke:none"
         id="path184"
         inkscape:connector-curvature="0" /></g><g
       id="g186"
       transform="translate(48.6543,46.8428)"
       style="fill:#000000"><path
         d="M 0,0 C 0.145,0 0.157,-0.157 0.145,-0.303 0.14,-0.842 0.367,-0.769 0.757,-0.808 1.333,-0.864 1.718,-0.397 1.771,0.303 1.816,0.909 1.506,1.419 1.039,1.419 c -1.305,0 -2.201,-2.135 -2.889,-3.395 l 0.187,0.717 c 0.152,0.574 0.324,1.245 0.371,1.833 0.041,0.573 -0.19,0.845 -0.601,0.845 -0.673,0 -1.371,-0.622 -1.864,-1.242 -0.16,-0.191 -0.649,-0.781 -0.676,-1.084 -0.007,-0.112 0.059,-0.194 0.133,-0.194 0.263,0 0.887,1.271 1.308,1.271 0.107,0 0.133,-0.143 0.124,-0.255 -0.025,-0.319 -0.263,-1.101 -0.361,-1.403 l -1.124,-3.45 -0.113,-0.368 c -0.019,-0.082 -0.085,-0.32 -0.087,-0.382 -0.02,-0.24 0.271,-0.193 0.381,-0.193 l 0.327,0 c 0.193,0 0.682,-0.047 0.851,0.128 0.104,0.097 0.183,0.351 0.244,0.495 C -2.015,-2.604 -0.398,0 0,0"
         style="fill:#000000;fill-opacity:1;fill-rule:evenodd;stroke:none"
         id="path188"
         inkscape:connector-curvature="0" /></g><g
       id="g190"
       transform="translate(53.0586,48.7822)"
       style="fill:#000000"><path
         d="M 0,0 C 0.545,0 1.042,0.469 1.09,1.101 1.133,1.664 0.811,2.036 0.326,2.036 -0.205,2.036 -0.704,1.54 -0.75,0.937 -0.795,0.372 -0.496,0 0,0 m -0.583,-4.408 c 0.186,0.514 0.581,1.848 0.731,2.329 0.426,1.362 0.307,1.362 -0.437,1.34 -0.731,-0.023 -1.004,-0.611 -1.014,-0.718 -0.019,-0.281 -1.807,-4.971 -1.864,-5.782 -0.045,-0.596 0.254,-0.86 0.709,-0.86 0.81,0 1.389,0.392 2.055,0.936 0.429,0.352 1.212,1.134 0.596,1.33 -0.166,0.053 -1.134,-1.424 -1.515,-1.155 -0.254,0.177 0.739,2.58 0.739,2.58"
         style="fill:#000000;fill-opacity:1;fill-rule:evenodd;stroke:none"
         id="path192"
         inkscape:connector-curvature="0" /></g><g
       id="g194"
       transform="translate(66.3896,46.8428)"
       style="fill:#000000"><path
         d="m 0,0 c 0.146,0 0.158,-0.157 0.147,-0.303 -0.006,-0.541 0.22,-0.466 0.612,-0.505 0.576,-0.056 0.959,0.411 1.012,1.111 0.045,0.606 -0.264,1.116 -0.734,1.116 -1.302,0 -2.199,-2.136 -2.885,-3.396 l 0.186,0.718 c 0.152,0.574 0.324,1.245 0.369,1.833 0.043,0.573 -0.188,0.845 -0.599,0.845 -0.676,0 -1.374,-0.622 -1.865,-1.242 -0.159,-0.191 -0.65,-0.781 -0.673,-1.084 -0.008,-0.112 0.057,-0.194 0.128,-0.194 0.266,0 0.887,1.271 1.308,1.271 0.111,0 0.134,-0.143 0.127,-0.255 -0.023,-0.32 -0.265,-1.101 -0.36,-1.403 l -1.126,-3.45 -0.114,-0.368 c -0.016,-0.082 -0.082,-0.32 -0.086,-0.382 -0.019,-0.24 0.273,-0.193 0.383,-0.193 l 0.323,0 c 0.193,0 0.685,-0.047 0.853,0.128 0.104,0.097 0.184,0.351 0.244,0.492 C -2.017,-2.604 -0.396,0 0,0"
         style="fill:#000000;fill-opacity:1;fill-rule:evenodd;stroke:none"
         id="path196"
         inkscape:connector-curvature="0" /></g><g
       id="g198"
       transform="translate(56.4448,44.4727)"
       style="fill:#000000"><path
         d="M 0,0 C 0.262,1.006 1.472,3.26 2.543,3.128 2.857,3.092 3.127,2.563 3.085,2.227 3.005,1.571 2.656,0.859 1.992,0.467 1.42,0.132 0.62,-0.043 0,0 M -0.156,-0.625 C 1.094,-0.664 4.65,-0.284 4.65,2.079 4.65,3.317 3.641,3.738 2.731,3.785 0.272,3.908 -2.03,1.598 -2.03,-1.152 c 0,-1.739 1.186,-2.637 2.552,-2.637 0.772,0 1.574,0.318 2.194,0.851 0.223,0.194 1.113,0.78 1.113,1.102 0,0.097 -0.131,0.311 -0.214,0.311 -0.247,0 -1.053,-1.144 -2.286,-1.288 -0.975,-0.112 -1.641,0.374 -1.641,1.29 l 0.156,0.898 z"
         style="fill:#000000;fill-opacity:1;fill-rule:evenodd;stroke:none"
         id="path200"
         inkscape:connector-curvature="0" /></g></g></svg>
