<?xml version="1.0" encoding="UTF-8" standalone="no"?>
<!-- Created with Inkscape (http://www.inkscape.org/) -->

<svg
   xmlns:dc="http://purl.org/dc/elements/1.1/"
   xmlns:cc="http://creativecommons.org/ns#"
   xmlns:rdf="http://www.w3.org/1999/02/22-rdf-syntax-ns#"
   xmlns:svg="http://www.w3.org/2000/svg"
   xmlns="http://www.w3.org/2000/svg"
   xmlns:sodipodi="http://sodipodi.sourceforge.net/DTD/sodipodi-0.dtd"
   xmlns:inkscape="http://www.inkscape.org/namespaces/inkscape"
   id="svg2"
   version="1.1"
   inkscape:version="0.91 r13725"
   xml:space="preserve"
   width="200"
   height="50"
   viewBox="0 0 200 50"
   sodipodi:docname="CHERKIZOVO.svg"><metadata
     id="metadata8"><rdf:RDF><cc:Work
         rdf:about=""><dc:format>image/svg+xml</dc:format><dc:type
           rdf:resource="http://purl.org/dc/dcmitype/StillImage" /><dc:title></dc:title></cc:Work></rdf:RDF></metadata><defs
     id="defs6"><clipPath
       clipPathUnits="userSpaceOnUse"
       id="clipPath18"><path
         d="m 0,447.876 623.626,0 L 623.626,0 0,0 0,447.876 Z"
         id="path20"
         inkscape:connector-curvature="0" /></clipPath></defs><sodipodi:namedview
     pagecolor="#ffffff"
     bordercolor="#666666"
     borderopacity="1"
     objecttolerance="10"
     gridtolerance="10"
     guidetolerance="10"
     inkscape:pageopacity="0"
     inkscape:pageshadow="2"
     inkscape:window-width="1317"
     inkscape:window-height="744"
     id="namedview4"
     showgrid="false"
     inkscape:zoom="3.3723622"
     inkscape:cx="110.98914"
     inkscape:cy="23.98375"
     inkscape:window-x="49"
     inkscape:window-y="24"
     inkscape:window-maximized="1"
     inkscape:current-layer="g10" /><g
     id="g10"
     inkscape:groupmode="layer"
     inkscape:label="CHERKIZOVO_Logo-01_Rus-Hor-Color_Pantone"
     transform="matrix(1.25,0,0,-1.25,0,50.000029)"><g
       id="g3408"
       transform="matrix(0.34475592,0,0,0.34475592,-27.269784,-57.039373)"><path
         inkscape:connector-curvature="0"
         id="path12"
         style="fill:#e5173e;fill-opacity:1;fill-rule:nonzero;stroke:none"
         d="m 178.261,174.702 0.948,0 0,98.474 -0.948,0 0,-98.474 z" /><g
         id="g14"><g
           clip-path="url(#clipPath18)"
           id="g16"><g
             transform="translate(224.8295,218.3032)"
             id="g22"><path
               inkscape:connector-curvature="0"
               id="path24"
               style="fill:#e5173e;fill-opacity:1;fill-rule:nonzero;stroke:none"
               d="m 0,0 c -2.23,-0.452 -4.925,-0.767 -7.201,-0.767 -7.712,0 -12.775,3.472 -12.775,11.363 l 0,11.451 7.153,0 0,-10.685 c 0,-4.058 2.092,-5.862 6.365,-5.862 2.276,0 4.459,0.271 6.458,0.767 l 0,15.78 7.154,0 0,-32.823 -7.154,0 L 0,0 Z" /></g><g
             transform="translate(365.7795,207.5272)"
             id="g26"><path
               inkscape:connector-curvature="0"
               id="path28"
               style="fill:#e5173e;fill-opacity:1;fill-rule:nonzero;stroke:none"
               d="M 0,0 0,21.913 -16.492,0 l -6.272,0 0,32.823 7.108,0 0,-21.236 15.981,21.236 6.829,0 L 7.154,0 0,0 Z" /></g><g
             transform="translate(440.2477,223.8492)"
             id="g30"><path
               inkscape:connector-curvature="0"
               id="path32"
               style="fill:#e5173e;fill-opacity:1;fill-rule:nonzero;stroke:none"
               d="m 0,0 0,0.09 c 0,5.771 -4.366,10.595 -10.498,10.595 -6.133,0 -10.407,-4.733 -10.407,-10.505 l 0,-0.09 c 0,-5.772 4.367,-10.596 10.499,-10.596 C -4.273,-10.506 0,-5.771 0,0 m -28.384,0 0,0.09 c 0,9.288 7.572,16.953 17.978,16.953 C 0,17.043 7.479,9.513 7.479,0.18 l 0,-0.09 c 0,-9.288 -7.572,-16.953 -17.977,-16.953 -10.407,0 -17.886,7.529 -17.886,16.863" /></g><g
             transform="translate(516.9322,223.8492)"
             id="g34"><path
               inkscape:connector-curvature="0"
               id="path36"
               style="fill:#e5173e;fill-opacity:1;fill-rule:nonzero;stroke:none"
               d="m 0,0 0,0.09 c 0,5.771 -4.366,10.595 -10.498,10.595 -6.133,0 -10.407,-4.733 -10.407,-10.505 l 0,-0.09 c 0,-5.772 4.367,-10.596 10.499,-10.596 C -4.273,-10.506 0,-5.771 0,0 m -28.384,0 0,0.09 c 0,9.288 7.572,16.953 17.978,16.953 C 0,17.043 7.479,9.513 7.479,0.18 l 0,-0.09 c 0,-9.288 -7.572,-16.953 -17.977,-16.953 -10.407,0 -17.886,7.529 -17.886,16.863" /></g><g
             transform="translate(247.1569,213.7036)"
             id="g38"><path
               inkscape:connector-curvature="0"
               id="path40"
               style="fill:#e5173e;fill-opacity:1;fill-rule:nonzero;stroke:none"
               d="M 0,0 0,13.336 C 0.064,9.972 2.804,7.263 6.183,7.26 l 10.182,0 0,6.176 -16.365,0 0,7.034 18.582,0 0,6.177 -25.644,0 0,-32.824 25.644,0 0,6.177 L 0,0 Z" /></g><g
             transform="translate(399.7911,224.3894)"
             id="g42"><path
               inkscape:connector-curvature="0"
               id="path44"
               style="fill:#e5173e;fill-opacity:1;fill-rule:nonzero;stroke:none"
               d="m 0,0 c 3.623,1.353 5.854,3.427 5.854,7.62 l 0,0.045 c 0,5.366 -4.645,8.838 -12.636,8.838 -6.039,0 -10.221,-2.164 -13.937,-5.366 l 4.32,-4.689 c 2.788,2.255 5.901,3.878 9.477,3.878 3.438,0 5.529,-1.353 5.529,-3.697 l 0,-0.045 c 0,-2.391 -2.045,-4.013 -5.575,-4.013 L -15.485,2.57 c 0.01,-3.188 2.594,-5.769 5.784,-5.773 l 2.547,0.002 c 4.135,0.045 6.69,-1.352 6.69,-3.877 l 0,-0.046 c 0,-2.705 -2.835,-4.103 -6.644,-4.103 -3.949,0 -7.108,1.578 -9.988,3.788 l -4.228,-4.96 c 3.346,-2.885 7.945,-5.005 14.03,-5.005 8.92,-0.044 14.076,4.194 14.076,9.694 l 0,0.046 C 6.782,-3.066 3.995,-0.992 0,0" /></g><g
             transform="translate(476.3368,217.3563)"
             id="g46"><path
               inkscape:connector-curvature="0"
               id="path48"
               style="fill:#e5173e;fill-opacity:1;fill-rule:nonzero;stroke:none"
               d="m 0,0 c 0,-2.525 -2.09,-3.743 -5.528,-3.743 l -9.059,0 0,13.213 c 0.08,-3.124 2.631,-5.634 5.774,-5.637 l 3.006,0 C -1.812,3.833 0,2.435 0,0.09 L 0,0 Z m -6.968,16.908 c 3.252,0 5.063,-1.308 5.063,-3.517 l 0,-0.09 c 0,-2.57 -2.137,-3.697 -5.529,-3.697 l -7.153,-10e-4 0,7.305 7.619,0 z M 0.697,7.304 c 2.415,1.308 4.506,3.381 4.506,7.124 l 0,0.09 c 0,2.255 -0.744,4.058 -2.277,5.591 -1.95,1.849 -5.016,2.885 -8.872,2.885 l -15.563,0 0,-32.823 15.981,0 c 7.618,0 12.636,3.02 12.636,9.018 l 0,0.089 c 0,4.419 -2.509,6.629 -6.411,8.026" /></g><g
             transform="translate(289.3099,223.7059)"
             id="g50"><path
               inkscape:connector-curvature="0"
               id="path52"
               style="fill:#e5173e;fill-opacity:1;fill-rule:nonzero;stroke:none"
               d="m 0,0 -9.192,0 0,10.378 9.121,0 0,-0.007 c 0.024,0 0.047,0.007 0.071,0.007 2.866,0 5.189,-2.323 5.189,-5.189 C 5.189,2.323 2.866,0 0,0 m -0.05,16.645 c -10e-4,0 -0.003,0 -0.004,0 l 0,0 -16.246,0 0,-32.824 7.108,0 0,10.011 9.138,0 0,0.001 c 0.001,0 0.003,0 0.004,0 6.299,0 11.406,5.107 11.406,11.406 0,6.299 -5.107,11.406 -11.406,11.406" /></g><g
             transform="translate(306.4694,240.3507)"
             id="g54"><path
               inkscape:connector-curvature="0"
               id="path56"
               style="fill:#e5173e;fill-opacity:1;fill-rule:nonzero;stroke:none"
               d="m 0,0 7.108,0 0,-14.789 L 21.231,0 l 8.78,0 -13.89,-13.978 14.495,-18.847 -8.595,0 -10.731,14.113 -4.182,-4.193 0,-9.92 -7.108,0 L 0,0 Z" /></g><g
             transform="translate(204.6887,192.3841)"
             id="g58"><path
               inkscape:connector-curvature="0"
               id="path60"
               style="fill:#e5173e;fill-opacity:1;fill-rule:nonzero;stroke:none"
               d="m 0,0 0,0.024 c 0,2.432 1.887,4.417 4.584,4.417 1.658,0 2.65,-0.528 3.472,-1.316 L 6.871,1.798 C 6.181,2.409 5.48,2.785 4.573,2.785 3.048,2.785 1.948,1.551 1.948,0.047 l 0,-0.023 c 0,-1.504 1.076,-2.762 2.625,-2.762 1.028,0 1.656,0.4 2.358,1.022 L 8.117,-2.879 C 7.209,-3.807 6.205,-4.395 4.512,-4.395 1.923,-4.395 0,-2.456 0,0" /></g><g
             transform="translate(220.7166,194.9102)"
             id="g62"><path
               inkscape:connector-curvature="0"
               id="path64"
               style="fill:#e5173e;fill-opacity:1;fill-rule:nonzero;stroke:none"
               d="m 0,0 -1.548,-0.376 -0.387,1.48 2.504,0.729 1.27,0 0,-8.612 L 0,-6.779 0,0 Z" /></g><g
             transform="translate(230.0068,193.8999)"
             id="g66"><path
               inkscape:connector-curvature="0"
               id="path68"
               style="fill:#e5173e;fill-opacity:1;fill-rule:nonzero;stroke:none"
               d="m 0,0 0,0.023 c 0,0.788 -0.604,1.363 -1.597,1.363 -0.991,0 -1.548,-0.575 -1.548,-1.363 l 0,-0.023 c 0,-0.787 0.605,-1.328 1.585,-1.328 C -0.568,-1.328 0,-0.752 0,0 m -0.012,-2.174 -0.012,0 c -0.435,-0.411 -1.052,-0.658 -1.839,-0.658 -1.899,0 -3.133,1.034 -3.133,2.75 l 0,0.023 c 0,1.715 1.368,2.984 3.339,2.984 1.174,0 1.863,-0.281 2.529,-0.916 0.628,-0.611 1.04,-1.551 1.04,-3.231 l 0,-0.024 c 0,-2.773 -1.355,-4.664 -3.823,-4.664 -1.282,0 -2.141,0.411 -2.879,1.01 l 0.98,1.375 c 0.641,-0.505 1.197,-0.752 1.936,-0.752 1.402,0 1.814,1.316 1.862,2.103" /></g><g
             transform="translate(238.1126,195.1216)"
             id="g70"><path
               inkscape:connector-curvature="0"
               id="path72"
               style="fill:#e5173e;fill-opacity:1;fill-rule:nonzero;stroke:none"
               d="m 0,0 -4.198,0 0,1.563 6.302,0 0,-1.363 -3.943,-7.191 -2.104,0 L 0,0 Z" /></g><g
             transform="translate(245.3821,191.4558)"
             id="g74"><path
               inkscape:connector-curvature="0"
               id="path76"
               style="fill:#e5173e;fill-opacity:1;fill-rule:nonzero;stroke:none"
               d="M 0,0 0,2.808 -2.456,0 0,0 Z m 0,-1.469 -4.331,0 -0.314,1.281 4.851,5.475 1.572,0 0,-5.287 1.198,0 0,-1.469 -1.198,0 0,-1.856 -1.778,0 0,1.856 z" /></g><g
             transform="translate(133.3945,236.0199)"
             id="g78"><path
               inkscape:connector-curvature="0"
               id="path80"
               style="fill:#e5173e;fill-opacity:1;fill-rule:nonzero;stroke:none"
               d="m 0,0 c -5.141,0 -9.191,2.138 -9.099,4.747 0.098,2.605 4.304,4.746 9.445,4.746 5.145,0 9.191,-2.141 9.098,-4.745 C 9.347,2.138 5.154,0 0,0 m 5.826,-9.018 c -2.545,1.554 -6.346,1.689 -11.477,-4.551 -2.444,-2.979 -4.804,-7.139 -7.643,-10.551 -2.837,-3.412 -6.144,-6.075 -10.485,-6.075 -5.524,0 -8.168,4.198 -9.392,9.436 -0.617,2.625 -0.878,5.499 -0.965,8.232 -0.093,2.737 -0.018,5.323 0.038,7.366 0.031,1.12 0.333,2.868 0.751,3.997 2.235,5.914 8.701,9.208 14.443,7.364 4.439,-1.428 7.317,-5.498 7.133,-10.004 -0.09,-2.282 -0.249,-4.676 -0.349,-6.659 -0.089,-1.982 -0.131,-3.566 0.041,-4.215 0.241,-0.943 1.189,-0.93 1.738,-0.415 0.267,0.256 0.976,1.059 1.824,2.008 0.836,0.958 1.82,2.069 2.634,2.946 1.615,1.751 5.35,5.298 12.096,5.298 7.432,0 13.253,-5.675 13.002,-12.673 -0.252,-7.011 -4.819,-12.681 -13.908,-12.681 -7.585,0 -11.717,4.764 -9.651,10.814 1.876,5.501 9.493,7.093 12.692,6.066 0.049,0.04 0.021,2.753 -2.522,4.297" /></g></g></g></g></g></svg>