<svg id="Layer_1" data-name="Layer 1" xmlns="http://www.w3.org/2000/svg" viewBox="0 0 140 39.3"><defs><style>.cls-1{fill:#e30613;}</style></defs><title>magnit</title><path class="cls-1" d="M176.55,92.09a2.59,2.59,0,0,1-.2.59l0,0-2.38,5.69-0.19-6.51a1,1,0,0,0-.34-0.73,0.92,0.92,0,0,0-.77-0.24h-7.32a0.92,0.92,0,0,1,.81,1.23,3.16,3.16,0,0,1-.23.66l-0.39.94-5.83,14.32a1.31,1.31,0,0,0-.14.6,0.82,0.82,0,0,0,.33.65,1.36,1.36,0,0,0,.89.27h5.71a0.93,0.93,0,0,1-.89-1.21,4.4,4.4,0,0,1,.17-0.57l2.55-6.39,0.16,8.18h6.42l3.14-8.24L178,108.58a1.05,1.05,0,0,0,.3.75,1,1,0,0,0,.7.28h7.43a1,1,0,0,1-.95-0.76,2.63,2.63,0,0,1-.08-0.64s0,0,0-.05l-0.89-15.85a1.57,1.57,0,0,0-.25-1,0.89,0.89,0,0,0-.86-0.35h-7.43a1,1,0,0,1,.61,1.15m5.52-10.39A0.68,0.68,0,0,1,182,82a0.74,0.74,0,0,1-.21.23,0.91,0.91,0,0,1-.27.13,1,1,0,0,1-.28,0h-0.85l0.29-1.25h0.82a0.82,0.82,0,0,1,.43.11,0.42,0.42,0,0,1,.17.41m1.59,0.76a2.37,2.37,0,0,0,.25-1,1.64,1.64,0,0,0-.44-1.32,2.05,2.05,0,0,0-1.49-.47h-2.84l-1.52,6.54h1.85L180,83.88h1a3.54,3.54,0,0,0,1.14-.17,2.69,2.69,0,0,0,.89-0.49,2.42,2.42,0,0,0,.6-0.76m12.9,19.72,1.33-3,0.22,3h-1.54Zm-2.83,6.18a2.49,2.49,0,0,1,.1-0.28l1.13-2.27h3.14l0.24,2.76a1,1,0,0,0,.39.8,1.09,1.09,0,0,0,.8.23h7.23a0.9,0.9,0,0,1-.92-0.74c-0.08-.24-1.36-16.62-1.36-16.62a1,1,0,0,0-.24-1c-0.33-.31-0.27-0.3-1.25-0.3h-8a0.9,0.9,0,0,1,.8,1.28c-0.07.28-1.72,3.35-1.72,3.35l-6.52,12.63a1,1,0,0,0-.14.51,1,1,0,0,0,1.14.89h5.85a1,1,0,0,1-.66-1.25m-5.6-26.62a1.63,1.63,0,0,1,0,.38l-0.4,1.66a1.79,1.79,0,0,1-.33.71,0.79,0.79,0,0,1-.65.27,0.8,0.8,0,0,1-.38-0.08,0.5,0.5,0,0,1-.21-0.22,0.68,0.68,0,0,1-.07-0.31,1.59,1.59,0,0,1,0-.38l0.4-1.66a2.19,2.19,0,0,1,.13-0.37,1.31,1.31,0,0,1,.2-0.32,0.9,0.9,0,0,1,.29-0.23,0.87,0.87,0,0,1,.39-0.08,0.74,0.74,0,0,1,.37.08,0.48,0.48,0,0,1,.21.22,0.76,0.76,0,0,1,.06.32m1.74,0.6a2.84,2.84,0,0,0,.07-1.09,1.78,1.78,0,0,0-1.1-1.44,2.82,2.82,0,0,0-1.13-.21,3.32,3.32,0,0,0-1.31.23,2.72,2.72,0,0,0-.9.61,3,3,0,0,0-.58.87,5.6,5.6,0,0,0-.34,1l-0.29,1.22a3.24,3.24,0,0,0-.08,1,1.77,1.77,0,0,0,.31.87,1.79,1.79,0,0,0,.75.6,3,3,0,0,0,1.25.22,3.57,3.57,0,0,0,1.28-.2,2.39,2.39,0,0,0,.87-0.56,2.76,2.76,0,0,0,.56-0.86,6.87,6.87,0,0,0,.35-1.1Zm5.9-.61a1.5,1.5,0,0,0,.1-0.45,1.37,1.37,0,0,0-.14-0.71,1.42,1.42,0,0,0-.45-0.51,2.06,2.06,0,0,0-.71-0.31,3.92,3.92,0,0,0-.91-0.1,3.4,3.4,0,0,0-1.53.33,3.13,3.13,0,0,0-1.12.95l1.24,0.85a1.5,1.5,0,0,1,.55-0.47,1.46,1.46,0,0,1,.68-0.17q0.64,0,.61.49a0.58,0.58,0,0,1-.09.31,0.67,0.67,0,0,1-.21.2,1,1,0,0,1-.28.11,1.27,1.27,0,0,1-.3,0h-0.62l-0.28,1.21h0.61a0.77,0.77,0,0,1,.42.11,0.39,0.39,0,0,1,.16.38,0.78,0.78,0,0,1-.09.34,0.81,0.81,0,0,1-.21.25,0.91,0.91,0,0,1-.3.16,1.15,1.15,0,0,1-.35.05,1,1,0,0,1-1-.68l-1.51.75a1.35,1.35,0,0,0,.31.63,2.06,2.06,0,0,0,.56.44,2.65,2.65,0,0,0,.72.26,4,4,0,0,0,.83.08,4.36,4.36,0,0,0,1-.12,2.88,2.88,0,0,0,.91-0.39,2.18,2.18,0,0,0,.66-0.66,1.91,1.91,0,0,0,.28-1,1.4,1.4,0,0,0,0-.35,1.16,1.16,0,0,0-.13-0.35,1.17,1.17,0,0,0-.25-0.3,1.26,1.26,0,0,0-.38-0.22V82.86a1.94,1.94,0,0,0,1-.68,1.78,1.78,0,0,0,.25-0.46m5.46,4.51,1.52-6.54h-1.83l-0.57,2.46h-1.62l0.57-2.46h-1.85l-1.52,6.54h1.85l0.58-2.51H200l-0.58,2.51h1.83Zm14.16,22.31c-0.05-.12.88-3.95,0.88-3.95v0l2.13-9.29h3.74a1.79,1.79,0,0,0,1.1-.35,1.58,1.58,0,0,0,.61-0.95l0.7-3H210.79a0.91,0.91,0,0,1,.74,1c0,0.13-3.78,16.27-3.78,16.27a2.33,2.33,0,0,0-.05.43,0.94,0.94,0,0,0,.28.66,1.12,1.12,0,0,0,.64.29h7.7a0.91,0.91,0,0,1-.94-1m15.14,0s0.07-.47.07-0.51l0.76-3.21,0.81-3.5h1.92l-1.65,6.94a1.75,1.75,0,0,0,0,.49,0.92,0.92,0,0,0,.9.81h7.53a0.93,0.93,0,0,1-.74-1s0.12-.55.12-0.59l0.79-3.39h0l2.87-12.38,0.05-.41a0.8,0.8,0,0,0-.23-0.6,0.82,0.82,0,0,0-.64-0.3h-7.48a1,1,0,0,1,.67,1,5.32,5.32,0,0,1-.12.69l-0.11.47-1.09,4.68H233l1.35-5.53a2.28,2.28,0,0,1,0-.35,0.91,0.91,0,0,0-.91-0.95H226a1.07,1.07,0,0,1,.67,1,3.19,3.19,0,0,1-.12.69l-0.23,1-3.44,14.71a1.79,1.79,0,0,0,0,.39,1,1,0,0,0,.87.94h7.54a1,1,0,0,1-.75-1M208.24,86.23l1.52-6.54h-1.57l-1.62,1.9-1.41,1.67h0L206,79.69H204.1l-1.52,6.54h1.65l1.67-1.91,1.22-1.42h0l-0.76,3.33h1.86Zm5.95,0,1.53-6.54h-1.78l-0.6,2.55-0.14.06-0.2.06-0.22,0h-0.21q-0.72,0-.51-1l0.41-1.75h-1.79l-0.52,2.2a2.19,2.19,0,0,0,0,.95,1.22,1.22,0,0,0,.33.62,1.38,1.38,0,0,0,.61.34,2.88,2.88,0,0,0,.79.1,4.37,4.37,0,0,0,.57,0,3.81,3.81,0,0,0,.56-0.11l-0.57,2.47h1.79Zm6.64,0,1.52-6.54h-1.83L220,82.15h-1.62l0.57-2.46h-1.85l-1.52,6.54h1.85L218,83.72h1.62L219,86.23h1.83Zm5.22-2.6h-1l0.32-.66,0.58-1.17H226l0,1.13Zm0.2,2.6h1.91l-0.75-6.54H225.5l-3.83,6.54h2l0.59-1.14h1.94Zm7.35-5.06-0.27,1.19h-0.84a0.67,0.67,0,0,1-.41-0.12,0.42,0.42,0,0,1-.14-0.39,0.62,0.62,0,0,1,.26-0.54,1,1,0,0,1,.53-0.14h0.88Zm0.67,5.06,1.46-6.54h-3.07a3.38,3.38,0,0,0-1,.14,2.37,2.37,0,0,0-.81.42,2.14,2.14,0,0,0-.57.71,2.47,2.47,0,0,0-.25,1,2.08,2.08,0,0,0,.13.84,1.15,1.15,0,0,0,.6.62,1.48,1.48,0,0,0-.7.42,2.64,2.64,0,0,0-.39.59l-0.83,1.79h1.92l0.78-1.6a3.41,3.41,0,0,1,.3-0.48,1.28,1.28,0,0,1,.26-0.26,0.6,0.6,0,0,1,.24-0.11l0.24,0H233l-0.57,2.47h1.85Zm19.18,4.69h-7.53a1.07,1.07,0,0,1,.71,1,2.1,2.1,0,0,1-.06.45h0l-0.47,2-0.36,1.55h0l-2.88,12.32a3.16,3.16,0,0,0-.06.46,0.92,0.92,0,0,0,.89.87h7.56a0.37,0.37,0,0,1-.17,0,0.94,0.94,0,0,1-.63-1.37,3.1,3.1,0,0,1,.35-0.61l0.17-.26,0,0,1.68-2.56h0l2.2-3.36-1.65,6.91a0.59,0.59,0,0,1-.07.26,1,1,0,0,0,.94,1h7.53a0.92,0.92,0,0,1-.76-1,2.13,2.13,0,0,1,.16-0.65l0.76-3.33h0l2.86-12.36,0.07-.39a0.78,0.78,0,0,0-.23-0.58,0.86,0.86,0,0,0-.65-0.32h-7.39l0.08,0a1,1,0,0,1,.61,1.37,3.1,3.1,0,0,1-.36.6l-4.16,6.26,1.68-7a1.61,1.61,0,0,0,0-.47,1,1,0,0,0-.9-0.83M243,81.9l1.7-.63a1.7,1.7,0,0,0-.74-1.27,3.42,3.42,0,0,0-2.78-.2,2.55,2.55,0,0,0-.84.56,3.05,3.05,0,0,0-.57.82,4.71,4.71,0,0,0-.34,1l-0.36,1.5a2.33,2.33,0,0,0,0,1.07,1.8,1.8,0,0,0,.42.83,2.06,2.06,0,0,0,.81.54,3.22,3.22,0,0,0,1.16.19A3.37,3.37,0,0,0,243,85.9a2.63,2.63,0,0,0,1.12-1.28L242.49,84a1.6,1.6,0,0,1-.43.61,0.86,0.86,0,0,1-.53.18,0.84,0.84,0,0,1-.38-0.08,0.52,0.52,0,0,1-.22-0.2,0.61,0.61,0,0,1-.08-0.29,1.28,1.28,0,0,1,0-.35l0.42-1.79a1.55,1.55,0,0,1,.32-0.64,0.8,0.8,0,0,1,.64-0.27l0.25,0a0.52,0.52,0,0,1,.22.11,0.66,0.66,0,0,1,.17.23,1,1,0,0,1,.07.38m7.66-.69L251,79.69h-4.82l-1.52,6.54h4.91l0.34-1.52h-3l0.25-1.07h2.53L250,82.12h-2.53l0.21-.9h3Zm6.1,0,0.36-1.52h-5.29l-0.36,1.52h1.72l-1.17,5h1.85l1.17-5h1.72Zm11.17,14.06h1.14l-3.06,13a2.28,2.28,0,0,0-.05.43,0.94,0.94,0,0,0,.87.87h7.53a0.92,0.92,0,0,1-.73-1,3.29,3.29,0,0,1,.13-0.69l0.43-1.78,2.56-10.84h2.05a1.07,1.07,0,0,0,1.15-.87L281,90.23h0a1,1,0,0,1-.69.7,3.36,3.36,0,0,1-.77,0h-12a0.92,0.92,0,0,0-.68.16,0.81,0.81,0,0,0-.37.56l-1,4.31a1,1,0,0,1,.72-0.67,3.1,3.1,0,0,1,.7,0h1Zm-7.58-11.2a0.58,0.58,0,0,1-.25.48,0.93,0.93,0,0,1-.53.16h-0.92l0.26-1.1h0.9a0.6,0.6,0,0,1,.43.12,0.42,0.42,0,0,1,.12.34M262,84.9a2.44,2.44,0,0,0,.26-1,2,2,0,0,0-.07-0.66,1.26,1.26,0,0,0-.32-0.54,1.62,1.62,0,0,0-.6-0.38,2.68,2.68,0,0,0-.94-0.14h-1.06l0.57-2.47H258l-1.52,6.54h2.91a4,4,0,0,0,1.12-.15,2.66,2.66,0,0,0,.9-0.45A2.22,2.22,0,0,0,262,84.9m28.23,24.67V90.9a9.33,9.33,0,0,0-9.33-9.33H265.05l-0.66,2.8h16.49a6.54,6.54,0,0,1,6.53,6.53v18.67a6.54,6.54,0,0,1-6.53,6.53H159.54a6.54,6.54,0,0,1-6.53-6.53V90.9a6.54,6.54,0,0,1,6.53-6.53H176l0.66-2.8H159.54a9.33,9.33,0,0,0-9.33,9.33v18.67a9.33,9.33,0,0,0,9.33,9.33H280.88a9.33,9.33,0,0,0,9.33-9.33" transform="translate(-150.21 -79.6)"/></svg>