<?xml version="1.0" encoding="UTF-8" standalone="no"?>
<svg
   xmlns:dc="http://purl.org/dc/elements/1.1/"
   xmlns:cc="http://creativecommons.org/ns#"
   xmlns:rdf="http://www.w3.org/1999/02/22-rdf-syntax-ns#"
   xmlns:svg="http://www.w3.org/2000/svg"
   xmlns="http://www.w3.org/2000/svg"
   xmlns:sodipodi="http://sodipodi.sourceforge.net/DTD/sodipodi-0.dtd"
   xmlns:inkscape="http://www.inkscape.org/namespaces/inkscape"
   enable-background="new 0 0 184.8 45.6"
   viewBox="0 0 184.8 45.6"
   id="svg2"
   version="1.1"
   inkscape:version="0.91 r13725"
   sodipodi:docname="miratorg1.svg">
  <metadata
     id="metadata14">
    <rdf:RDF>
      <cc:Work
         rdf:about="">
        <dc:format>image/svg+xml</dc:format>
        <dc:type
           rdf:resource="http://purl.org/dc/dcmitype/StillImage" />
        <dc:title></dc:title>
      </cc:Work>
    </rdf:RDF>
  </metadata>
  <defs
     id="defs12" />
  <sodipodi:namedview
     pagecolor="#ffffff"
     bordercolor="#666666"
     borderopacity="1"
     objecttolerance="10"
     gridtolerance="10"
     guidetolerance="10"
     inkscape:pageopacity="0"
     inkscape:pageshadow="2"
     inkscape:window-width="1305"
     inkscape:window-height="744"
     id="namedview10"
     showgrid="false"
     inkscape:zoom="1.6991342"
     inkscape:cx="217.5443"
     inkscape:cy="22.799999"
     inkscape:window-x="61"
     inkscape:window-y="24"
     inkscape:window-maximized="1"
     inkscape:current-layer="svg2" />
  <path
     d="m 101,12.728026 7.2,-0.3 0,22 5.4,0 0,-22 7.2,0.3 0,-2.9000004 -19.8,0 z m 70,-2.9000004 0,24.6000004 5.4,0 0,-22 8.4,0.3 0,-2.9000004 z M 39.1,27.028026 l 0,-17.2000004 -5.1,0 0,24.6000004 2.7,0 12.8,-17.1 0,17.2 5.1,0 0,-24.7000004 -2.7,0 z m 49,-3.8 c -1.4,1 -2.7,2.2 -3.8,3.5 l 4.1,-11.6 0.2,0 2.3,6.6 c -1,0.4 -1.9,0.9 -2.8,1.5 m 12.3,-3.8 c 0,0 -1.9,0.1 -4.5,0.7 l -3.7,-10.3000004 -4.8,0 -9.4,24.6000004 2.6,0 c 2.8,-5.2 9.9,-10.3 14.5,-11.6 0.3,-0.1 0.5,0.2 0.1,0.4 -4.3,2.6 -8.7,5.6 -10.6,8.7 2,-0.2 4.8,-0.8 7.6,-2.7 5.1,-3.5 8.2,-9.9 8.2,-9.8"
     id="path4"
     style="fill:#ff1037;fill-opacity:1"
     inkscape:connector-curvature="0" />
  <path
     d="m 93,28.528026 1.5,4.8 5.4,0 -2.8,-8.5 c -1.3,1.8 -3.1,3.1 -4.1,3.7 m 39.5,3.6 c -4.6,0 -6.8,-4.7 -6.8,-10.5 0,-5.8 2.6,-10.5 6.8,-10.5 4.6,0 6.8,4.7 6.8,10.5 0,5.7 -2.6,10.5 -6.8,10.5 m 0,-23.3000004 c -6.9,0 -12.5,5.0000004 -12.5,12.7000004 0,7.5 4.7,12.7 12.5,12.7 6.8,0 12.5,-5.2 12.5,-12.7 0,-7.7 -4.8,-12.7000004 -12.5,-12.7000004 m -109.8,1 -8.1,16.4000004 -7.5,-16.4000004 -4,0 -3.1,24.6000004 3,0 2,-16.5 7,15.6 2.2,0 7.8,-16.2 1.9,17.1 5.3,0 L 26.5,9.8280256 Z M 156.3,23.928026 c -0.4,0 -0.7,0 -1.1,-0.1 l 0,-11.7 1.1,0 c 4.1,0 5.6,2.6 5.6,5.8 0.1,3.3 -1.5,6 -5.6,6 m 1.1,-14.1000004 -7.4,0 0,24.6000004 5.2,0 0,-8.4 c 0.8,0.1 1.5,0.1 2.3,0.1 6.1,0 9.7,-3.7 9.7,-8.2 0,-5 -3.7,-8.1000004 -9.8,-8.1000004 M 67.3,23.928026 c -0.4,0 -0.7,0 -1.1,-0.1 l 0,-11.7 1.1,0 c 4.1,0 5.6,2.6 5.6,5.8 0.1,3.3 -1.5,6 -5.6,6 m 1.1,-14.1000004 -7.4,0 0,24.6000004 5.2,0 0,-8.4 c 0.6,0.1 1.4,0.1 2.3,0.1 6.1,0 9.7,-3.7 9.7,-8.2 0,-5 -3.7,-8.1000004 -9.8,-8.1000004"
     id="path6"
     style="fill:#ff1037;fill-opacity:1"
     inkscape:connector-curvature="0" />
  <path
     style="fill:#ff1037;fill-opacity:1;stroke:none;stroke-opacity:1"
     d="m 129.44099,33.58236 c -3.28279,-0.643225 -6.23316,-2.900814 -7.79699,-5.966161 -1.81403,-3.555805 -1.42712,-9.925547 0.80806,-13.303138 4.47272,-6.7587319 15.36882,-6.9170741 20.05041,-0.291372 1.98565,2.810234 2.72301,8.171214 1.59429,11.591278 -1.93463,5.861984 -8.15324,9.243491 -14.65577,7.969393 z m 5.77332,-1.997134 c 3.90305,-2.018347 5.52073,-11.065538 2.97965,-16.664321 -2.30907,-5.0876019 -8.23678,-5.3450508 -10.9678,-0.476348 -3.27843,5.844575 -1.6304,15.5796 2.9508,17.430612 1.85433,0.749233 3.17478,0.673229 5.03735,-0.289943 z"
     id="path4142"
     inkscape:connector-curvature="0" />
  <path
     style="fill:#ff1037;fill-opacity:1;stroke:none;stroke-opacity:1"
     d="m 129.44099,33.58236 c -3.28279,-0.643225 -6.23316,-2.900814 -7.79699,-5.966161 -1.81403,-3.555805 -1.42712,-9.925547 0.80806,-13.303138 4.47272,-6.7587319 15.36882,-6.9170741 20.05041,-0.291372 1.98565,2.810234 2.72301,8.171214 1.59429,11.591278 -1.93463,5.861984 -8.15324,9.243491 -14.65577,7.969393 z m 5.77332,-1.997134 c 3.90305,-2.018347 5.52073,-11.065538 2.97965,-16.664321 -2.30907,-5.0876019 -8.23678,-5.3450508 -10.9678,-0.476348 -3.27843,5.844575 -1.6304,15.5796 2.9508,17.430612 1.85433,0.749233 3.17478,0.673229 5.03735,-0.289943 z"
     id="path4144"
     inkscape:connector-curvature="0" />
  <path
     style="fill:#ff1037;fill-opacity:1;stroke:none;stroke-opacity:1"
     d="m 150.54726,22.152611 0,-12.064969 4.81674,0 c 3.64859,0 5.41944,0.291769 7.30197,1.203085 4.2149,2.040398 5.50102,6.957942 2.86996,10.973449 -1.25903,1.921522 -5.24579,3.684855 -8.36765,3.700987 l -2.50127,0.01292 0,4.119746 0,4.119745 -2.05987,0 -2.05988,0 0,-12.064968 z m 10.13344,0.270171 c 2.69137,-3.292432 1.36488,-9.165743 -2.30228,-10.193862 -3.38594,-0.949276 -3.71141,-0.450524 -3.71141,5.687385 0,3.031306 0.19863,5.71131 0.4414,5.955565 0.7894,0.794229 4.53468,-0.179738 5.57229,-1.449088 z"
     id="path4146"
     inkscape:connector-curvature="0" />
  <path
     style="fill:#ff1037;fill-opacity:1;stroke:none;stroke-opacity:1"
     d="m 150.54726,22.152611 0,-12.064969 4.81674,0 c 3.64859,0 5.41944,0.291769 7.30197,1.203085 4.2149,2.040398 5.50102,6.957942 2.86996,10.973449 -1.25903,1.921522 -5.24579,3.684855 -8.36765,3.700987 l -2.50127,0.01292 0,4.119746 0,4.119745 -2.05987,0 -2.05988,0 0,-12.064968 z m 10.13344,0.270171 c 2.69137,-3.292432 1.36488,-9.165743 -2.30228,-10.193862 -3.38594,-0.949276 -3.71141,-0.450524 -3.71141,5.687385 0,3.031306 0.19863,5.71131 0.4414,5.955565 0.7894,0.794229 4.53468,-0.179738 5.57229,-1.449088 z"
     id="path4148"
     inkscape:connector-curvature="0" />
  <path
     style="fill:#ff1037;fill-opacity:1;stroke:none;stroke-opacity:1;fill-rule:evenodd"
     d="m 150.54726,22.152611 0,-12.064969 4.81674,0 c 3.64859,0 5.41944,0.291769 7.30197,1.203085 4.2149,2.040398 5.50102,6.957942 2.86996,10.973449 -1.25903,1.921522 -5.24579,3.684855 -8.36765,3.700987 l -2.50127,0.01292 0,4.119746 0,4.119745 -2.05987,0 -2.05988,0 0,-12.064968 z m 10.13344,0.270171 c 2.69137,-3.292432 1.36488,-9.165743 -2.30228,-10.193862 -3.38594,-0.949276 -3.71141,-0.450524 -3.71141,5.687385 0,3.031306 0.19863,5.71131 0.4414,5.955565 0.7894,0.794229 4.53468,-0.179738 5.57229,-1.449088 z"
     id="path4150"
     inkscape:connector-curvature="0" />
  <path
     style="fill:#ff1037;fill-opacity:1;fill-rule:evenodd;stroke:none;stroke-opacity:1"
     d="M 0.47195867,33.48191 C 0.47339581,32.546808 2.7128682,14.561643 3.1511252,11.965569 3.4483645,10.204832 3.6520248,10.03547 5.2742915,10.199963 c 1.6887802,0.171238 2.0041626,0.640908 5.3585805,7.980036 1.960306,4.288949 3.724633,7.798089 3.920729,7.798089 0.196095,0 2.138419,-3.57535 4.316276,-7.945223 3.767688,-7.559874 4.045506,-7.945223 5.728116,-7.945223 1.017951,0 1.771873,0.312188 1.776615,0.735669 0.0045,0.404618 0.530506,5.237962 1.168832,10.740765 1.572606,13.556924 1.656645,12.653503 -1.17707,12.653503 -1.488228,0 -2.356021,-0.270598 -2.359255,-0.735669 -0.0028,-0.404618 -0.397772,-4.046178 -0.877688,-8.092357 -0.479916,-4.046178 -0.888749,-7.621528 -0.908518,-7.945223 -0.01977,-0.323694 -1.877809,3.053026 -4.128978,7.503822 -2.914507,5.762288 -4.3884,8.089789 -5.118851,8.083438 C 12.22556,33.02509 11.075694,31.018091 8.7346375,25.633731 6.9676946,21.569815 5.3523278,18.139921 5.1449329,18.011744 4.9375382,17.883567 4.4477601,20.484291 4.056537,23.791131 2.8550905,33.946441 2.7904981,34.217579 1.5726785,34.217579 c -0.60601776,0 -1.10134168,-0.331051 -1.10071983,-0.735669 z"
     id="path4152"
     inkscape:connector-curvature="0" />
  <path
     style="fill:#ff1037;fill-opacity:1;fill-rule:evenodd;stroke:none;stroke-opacity:1"
     d="M 0.47195867,33.48191 C 0.47339581,32.546808 2.7128682,14.561643 3.1511252,11.965569 3.4483645,10.204832 3.6520248,10.03547 5.2742915,10.199963 c 1.6887802,0.171238 2.0041626,0.640908 5.3585805,7.980036 1.960306,4.288949 3.724633,7.798089 3.920729,7.798089 0.196095,0 2.138419,-3.57535 4.316276,-7.945223 3.767688,-7.559874 4.045506,-7.945223 5.728116,-7.945223 1.017951,0 1.771873,0.312188 1.776615,0.735669 0.0045,0.404618 0.530506,5.237962 1.168832,10.740765 1.572606,13.556924 1.656645,12.653503 -1.17707,12.653503 -1.488228,0 -2.356021,-0.270598 -2.359255,-0.735669 -0.0028,-0.404618 -0.397772,-4.046178 -0.877688,-8.092357 -0.479916,-4.046178 -0.888749,-7.621528 -0.908518,-7.945223 -0.01977,-0.323694 -1.877809,3.053026 -4.128978,7.503822 -2.914507,5.762288 -4.3884,8.089789 -5.118851,8.083438 C 12.22556,33.02509 11.075694,31.018091 8.7346375,25.633731 6.9676946,21.569815 5.3523278,18.139921 5.1449329,18.011744 4.9375382,17.883567 4.4477601,20.484291 4.056537,23.791131 2.8550905,33.946441 2.7904981,34.217579 1.5726785,34.217579 c -0.60601776,0 -1.10134168,-0.331051 -1.10071983,-0.735669 z"
     id="path4154"
     inkscape:connector-curvature="0" />
  <path
     style="fill:#ff1037;fill-opacity:1;fill-rule:evenodd;stroke:none;stroke-opacity:1"
     d="M 0.47195867,33.48191 C 0.47339581,32.546808 2.7128682,14.561643 3.1511252,11.965569 3.4483645,10.204832 3.6520248,10.03547 5.2742915,10.199963 c 1.6887802,0.171238 2.0041626,0.640908 5.3585805,7.980036 1.960306,4.288949 3.724633,7.798089 3.920729,7.798089 0.196095,0 2.138419,-3.57535 4.316276,-7.945223 3.767688,-7.559874 4.045506,-7.945223 5.728116,-7.945223 1.017951,0 1.771873,0.312188 1.776615,0.735669 0.0045,0.404618 0.530506,5.237962 1.168832,10.740765 1.572606,13.556924 1.656645,12.653503 -1.17707,12.653503 -1.488228,0 -2.356021,-0.270598 -2.359255,-0.735669 -0.0028,-0.404618 -0.397772,-4.046178 -0.877688,-8.092357 -0.479916,-4.046178 -0.888749,-7.621528 -0.908518,-7.945223 -0.01977,-0.323694 -1.877809,3.053026 -4.128978,7.503822 -2.914507,5.762288 -4.3884,8.089789 -5.118851,8.083438 C 12.22556,33.02509 11.075694,31.018091 8.7346375,25.633731 6.9676946,21.569815 5.3523278,18.139921 5.1449329,18.011744 4.9375382,17.883567 4.4477601,20.484291 4.056537,23.791131 2.8550905,33.946441 2.7904981,34.217579 1.5726785,34.217579 c -0.60601776,0 -1.10134168,-0.331051 -1.10071983,-0.735669 z"
     id="path4156"
     inkscape:connector-curvature="0" />
  <path
     style="fill:#ff1037;fill-opacity:1;fill-rule:evenodd;stroke:none;stroke-opacity:1"
     d="M 0.47195867,33.48191 C 0.47339581,32.546808 2.7128682,14.561643 3.1511252,11.965569 3.4483645,10.204832 3.6520248,10.03547 5.2742915,10.199963 c 1.6887802,0.171238 2.0041626,0.640908 5.3585805,7.980036 1.960306,4.288949 3.724633,7.798089 3.920729,7.798089 0.196095,0 2.138419,-3.57535 4.316276,-7.945223 3.767688,-7.559874 4.045506,-7.945223 5.728116,-7.945223 1.017951,0 1.771873,0.312188 1.776615,0.735669 0.0045,0.404618 0.530506,5.237962 1.168832,10.740765 1.572606,13.556924 1.656645,12.653503 -1.17707,12.653503 -1.488228,0 -2.356021,-0.270598 -2.359255,-0.735669 -0.0028,-0.404618 -0.397772,-4.046178 -0.877688,-8.092357 -0.479916,-4.046178 -0.888749,-7.621528 -0.908518,-7.945223 -0.01977,-0.323694 -1.877809,3.053026 -4.128978,7.503822 -2.914507,5.762288 -4.3884,8.089789 -5.118851,8.083438 C 12.22556,33.02509 11.075694,31.018091 8.7346375,25.633731 6.9676946,21.569815 5.3523278,18.139921 5.1449329,18.011744 4.9375382,17.883567 4.4477601,20.484291 4.056537,23.791131 2.8550905,33.946441 2.7904981,34.217579 1.5726785,34.217579 c -0.60601776,0 -1.10134168,-0.331051 -1.10071983,-0.735669 z"
     id="path4158"
     inkscape:connector-curvature="0" />
  <path
     style="fill:#ff1037;fill-opacity:1;fill-rule:evenodd;stroke:none;stroke-opacity:1"
     d="M 0.47195867,33.48191 C 0.47339581,32.546808 2.7128682,14.561643 3.1511252,11.965569 3.4483645,10.204832 3.6520248,10.03547 5.2742915,10.199963 c 1.6887802,0.171238 2.0041626,0.640908 5.3585805,7.980036 1.960306,4.288949 3.724633,7.798089 3.920729,7.798089 0.196095,0 2.138419,-3.57535 4.316276,-7.945223 3.767688,-7.559874 4.045506,-7.945223 5.728116,-7.945223 1.017951,0 1.771873,0.312188 1.776615,0.735669 0.0045,0.404618 0.530506,5.237962 1.168832,10.740765 1.572606,13.556924 1.656645,12.653503 -1.17707,12.653503 -1.488228,0 -2.356021,-0.270598 -2.359255,-0.735669 -0.0028,-0.404618 -0.397772,-4.046178 -0.877688,-8.092357 -0.479916,-4.046178 -0.888749,-7.621528 -0.908518,-7.945223 -0.01977,-0.323694 -1.877809,3.053026 -4.128978,7.503822 -2.914507,5.762288 -4.3884,8.089789 -5.118851,8.083438 C 12.22556,33.02509 11.075694,31.018091 8.7346375,25.633731 6.9676946,21.569815 5.3523278,18.139921 5.1449329,18.011744 4.9375382,17.883567 4.4477601,20.484291 4.056537,23.791131 2.8550905,33.946441 2.7904981,34.217579 1.5726785,34.217579 c -0.60601776,0 -1.10134168,-0.331051 -1.10071983,-0.735669 z"
     id="path4160"
     inkscape:connector-curvature="0" />
</svg>
