<svg xmlns="http://www.w3.org/2000/svg" viewBox="0 0 131.96 26.02"><defs><style>.cls-1{fill:#005826}.cls-2{fill:#72bf44}.cls-3{fill:#00a651}.cls-4{fill:#b2d235}</style></defs><title>Ресурс 1</title><g id="Слой_2" data-name="Слой 2"><g id="Layer_1" data-name="Layer 1"><path class="cls-1" d="M20 9.58a2.59 2.59 0 0 1 2.56 2.68A2.59 2.59 0 0 1 20 14.94a2.71 2.71 0 0 1-2.12-.94l-1.78-1.77 1.77-1.76A2.72 2.72 0 0 1 20 9.58m0-2a4.74 4.74 0 0 0-3.49 1.49l-3.1 3.2 3.1 3.19A4.73 4.73 0 0 0 20 16.94a4.58 4.58 0 0 0 4.56-4.68A4.58 4.58 0 0 0 20 7.57"/><path class="cls-2" d="M4.56 9.58a2.71 2.71 0 0 1 2.08.91l1.78 1.77L6.65 14a2.72 2.72 0 0 1-2.09.92A2.59 2.59 0 0 1 2 12.26a2.59 2.59 0 0 1 2.56-2.68m0-2A4.58 4.58 0 0 0 0 12.26a4.58 4.58 0 0 0 4.56 4.68A4.74 4.74 0 0 0 8 15.45l3.1-3.19L8 9.06a4.74 4.74 0 0 0-3.44-1.49"/><path class="cls-3" d="M12.26 16.09L14 17.87a2.72 2.72 0 0 1 .94 2.13 2.56 2.56 0 0 1-2.68 2.56A2.56 2.56 0 0 1 9.58 20a2.71 2.71 0 0 1 .91-2.08zm0-2.73a34.88 34.88 0 0 0-3.19 3.1A4.74 4.74 0 0 0 7.57 20a4.58 4.58 0 0 0 4.68 4.56A4.58 4.58 0 0 0 16.94 20a4.73 4.73 0 0 0-1.49-3.49z"/><path class="cls-4" d="M12.26 2a2.59 2.59 0 0 1 2.68 2.56A2.71 2.71 0 0 1 14 6.64l-1.74 1.78-1.77-1.77a2.72 2.72 0 0 1-.92-2.09A2.56 2.56 0 0 1 12.26 2m0-2a4.58 4.58 0 0 0-4.69 4.56 4.74 4.74 0 0 0 1.49 3.49l3.19 3.1 3.19-3.1a4.73 4.73 0 0 0 1.49-3.49A4.58 4.58 0 0 0 12.26 0"/><path class="cls-2" d="M89.53 24.27a1.67 1.67 0 0 1-.38.78.91.91 0 0 1-.75.33 1.13 1.13 0 0 1-1-.72 3 3 0 0 1-.21-1.2 2.54 2.54 0 0 1 .26-1.23 1.07 1.07 0 0 1 1-.6 1 1 0 0 1 .86.47 1.72 1.72 0 0 1 .24.6v.06h.06l.62-.12v-.06a1.89 1.89 0 0 0-.57-1.14 1.68 1.68 0 0 0-1.24-.44 1.89 1.89 0 0 0-1.49.65 2.66 2.66 0 0 0-.56 1.79 3.28 3.28 0 0 0 .46 1.75 1.77 1.77 0 0 0 1.58.85 1.55 1.55 0 0 0 1.22-.51 2.22 2.22 0 0 0 .56-1.1v-.06l-.67-.14zm2.85-.43l-1.32-2.78h-.76l1.7 3.59a1.39 1.39 0 0 1-.3.54.72.72 0 0 1-.5.18.59.59 0 0 1-.24 0h-.09v.65a1 1 0 0 0 .34.06 1.26 1.26 0 0 0 .82-.31 2.53 2.53 0 0 0 .59-1l1.46-3.62h-.67zM94.6 26h.73v-4.31h2V26h.73v-4.9H94.6zm5.31-2.26h1.92v-.62h-1.92v-1.43h2.42v-.64h-3.15V26h3.22v-.65h-2.49zm6.1-2.33a2 2 0 0 0-1.23-.32h-1.65V26h.73v-2h1a1.71 1.71 0 0 0 1.25-.39 1.48 1.48 0 0 0 .47-1.12 1.36 1.36 0 0 0-.53-1.14m-.49 1.79a1.14 1.14 0 0 1-.79.22h-.87v-1.67h.92a1.18 1.18 0 0 1 .74.2.74.74 0 0 1 .25.6.89.89 0 0 1-.26.66m4.06 1.62l-1.4-3.72h-1V26h.63v-3.9l1.46 3.9h.49l1.43-4v4h.73v-4.9h-1zm5.28-3.72h-.78L112.49 26h.68l.43-1.39h1.62l.44 1.39h.79v-.08zM113.78 24l.63-2 .62 2zm6-2.59a2 2 0 0 0-1.24-.32h-1.64V26h.73v-2h1a1.71 1.71 0 0 0 1.25-.39 1.48 1.48 0 0 0 .47-1.12 1.37 1.37 0 0 0-.53-1.14m-.5 1.79a1.12 1.12 0 0 1-.79.22h-.87v-1.67h.92a1.17 1.17 0 0 1 .74.2.73.73 0 0 1 .25.6.89.89 0 0 1-.26.66m4.9 2.22c-.15 0-.19-.09-.25-.25-.22-.61-.21-.88-.37-1.24a1 1 0 0 0-.58-.56.91.91 0 0 0 .44-.54 6.5 6.5 0 0 1 .3-1.07.34.34 0 0 1 .21-.13h.22V21a1.08 1.08 0 0 0-.24 0 .82.82 0 0 0-.79.51c-.16.37-.2 1-.39 1.28a.73.73 0 0 1-.69.32h-.6v-2h-.72V26h.72v-2.3h.53c.32 0 .65 0 .83.34a2.91 2.91 0 0 1 .2.66 3.42 3.42 0 0 0 .28.9.75.75 0 0 0 .68.42.63.63 0 0 0 .33-.08v-.59h-.2m1.61-1.68h1.93v-.62h-1.93v-1.36h2.42v-.64H125V26h3.22v-.65h-2.49zm2.68-2.65v.64h1.35V26h.73v-4.31H132v-.64z"/><path class="cls-1" d="M53.24 8.7a2.43 2.43 0 0 0-.47 0 5.43 5.43 0 0 0-2.49.76v-.3c0-.12 0-.33-.23-.33h-1.58a.84.84 0 0 0-.81.76v9.89a2.2 2.2 0 0 0 2.26 2.31H50c.12 0 .26-.05.26-.29v-3.6a4.09 4.09 0 0 0 2.13.6 4.61 4.61 0 0 0 .92-.08c1.64-.25 3.15-1.73 3.15-4.94 0-2.66-1.13-4.62-3.25-4.78m-1.31 7.91c-1 0-1.6-.79-1.6-2.1v-2c0-1.12.63-2 1.6-2s1.71.87 1.71 3c0 1.59-.35 3.08-1.71 3.08m65.34-7.92A4.51 4.51 0 0 0 114 10a5 5 0 0 0-1.4 3.58 5.17 5.17 0 0 0 1.4 3.67 4.85 4.85 0 0 0 6.38 0 5.15 5.15 0 0 0 1.48-3.71A5 5 0 0 0 120.5 10a4.52 4.52 0 0 0-3.26-1.29m1.36 7.14a1.57 1.57 0 0 1-2.73 0 4.43 4.43 0 0 1-.42-2.27 4.25 4.25 0 0 1 .48-2.29 1.53 1.53 0 0 1 2.62 0 4.25 4.25 0 0 1 .48 2.29 4.4 4.4 0 0 1-.43 2.27M101 10.52a1.47 1.47 0 0 1 1.18.61 2.07 2.07 0 0 1 .25.57.47.47 0 0 0 .45.38h1.93a.17.17 0 0 0 .17-.19 4.22 4.22 0 0 0-1.19-2.24 4.21 4.21 0 0 0-2.82-1 4.5 4.5 0 0 0-3 1.11 4.93 4.93 0 0 0-1.5 3.8 5.13 5.13 0 0 0 1.38 3.73 4.28 4.28 0 0 0 3 1.14 4.22 4.22 0 0 0 2.84-1 4.05 4.05 0 0 0 1.2-2.1c0-.06 0-.18-.16-.18h-2a.43.43 0 0 0-.42.35v.06a2 2 0 0 1-.17.32 1.19 1.19 0 0 1-1.14.61 1.31 1.31 0 0 1-1.25-.74 4.52 4.52 0 0 1-.4-2.3 4.49 4.49 0 0 1 .38-2.31 1.5 1.5 0 0 1 1.26-.74m-58.8-1.73a4.59 4.59 0 0 0-3.1 1 4.79 4.79 0 0 0-1.66 3.85 4.89 4.89 0 0 0 1.34 3.56 4.72 4.72 0 0 0 3.39 1.31 5.18 5.18 0 0 0 3-.85 3.88 3.88 0 0 0 1.48-2c0-.08.06-.25-.14-.25h-2.21a.42.42 0 0 0-.3.22 1.54 1.54 0 0 1-.31.47 1.9 1.9 0 0 1-1.38.54 1.78 1.78 0 0 1-1.68-1 3.06 3.06 0 0 1-.31-1.5h6.16c.25 0 .33-.18.34-.51v-.07a5.18 5.18 0 0 0-1.09-3.29 4.43 4.43 0 0 0-3.54-1.57m-1.88 3.87a2.14 2.14 0 0 1 .51-1.44 1.94 1.94 0 0 1 1.4-.59 1.65 1.65 0 0 1 1.4.7 2.26 2.26 0 0 1 .39 1.42zm34.64 2.74c-.59-1.22-1.12-2-1.62-2 0 0 .67 0 1.12-1.27.16-.43.59-1.44.88-2.06a3.71 3.71 0 0 1 .47-.71.19.19 0 0 0 0-.12.2.2 0 0 0-.19-.21h-1.88c-.53 0-.78.43-1 .83-.29.66-.4 1.07-.81 2a1.37 1.37 0 0 1-1.34.9h-.56V9.14c0-.12.05-.34-.23-.34h-1.67a.85.85 0 0 0-.81.77v7.23a2.25 2.25 0 0 0 .11.76 1.19 1.19 0 0 0 1 .76h1.2c.31 0 .4-.16.4-.4v-3.8h.48c1.05 0 1.52 1.2 2 2.05s1.13 2.18 2.41 2.11h1.52a.2.2 0 0 0 .19-.2.2.2 0 0 0 0-.1c-.36-.58-1.16-1.89-1.65-2.8M35.75 6.16h-7.56a.93.93 0 0 0-.92.94v8.73a3 3 0 0 0 .2 1.14 2.41 2.41 0 0 0 1.93 1.38h.35c.24 0 .28-.12.28-.39V9.08a.39.39 0 0 1 .37-.31h3.11a.4.4 0 0 1 .38.31v6.75a3 3 0 0 0 .2 1.14A2.41 2.41 0 0 0 36 18.35h.35c.24 0 .28-.12.28-.39V7.09a1 1 0 0 0-.89-.93M113.51 9c0-.09 0-.21-.17-.21h-8.85c-.19 0-.2.12-.18.21a2.29 2.29 0 0 0 1.89 1.8h1a.42.42 0 0 1 .37.41v4.87a2.06 2.06 0 0 0 .19.91 2.4 2.4 0 0 0 1.92 1.38h.32c.24 0 .29-.12.29-.39V11.2a.43.43 0 0 1 .37-.41h1A2.29 2.29 0 0 0 113.51 9m18.42 9c-.36-.58-1.16-1.89-1.65-2.8-.59-1.22-1.12-2-1.62-2 0 0 .67 0 1.12-1.27.15-.43.59-1.44.88-2.06a3.75 3.75 0 0 1 .47-.71.2.2 0 0 0-.13-.36h-1.92c-.53 0-.78.43-1 .83-.28.66-.4 1.07-.81 2a1.37 1.37 0 0 1-1.34.9h-.56V9.14c0-.12 0-.34-.23-.34h-1.71a.85.85 0 0 0-.81.77v7.23a2.31 2.31 0 0 0 .11.75 1.19 1.19 0 0 0 1 .76H125c.31 0 .39-.16.39-.4v-3.8h.48c1.06 0 1.52 1.2 2 2.05s1.13 2.18 2.41 2.11h1.52a.2.2 0 0 0 .16-.29M82.53 8.7a2.44 2.44 0 0 0-.47 0 5.44 5.44 0 0 0-2.49.76v-.3c0-.12.05-.33-.23-.33h-1.58a.84.84 0 0 0-.81.76v9.89a2.2 2.2 0 0 0 2.26 2.31h.1c.13 0 .26-.05.26-.29v-3.6a4.09 4.09 0 0 0 2.13.6 4.56 4.56 0 0 0 .91-.08c1.65-.25 3.15-1.73 3.15-4.94 0-2.66-1.13-4.62-3.25-4.78m-1.35 7.92c-1 0-1.6-.79-1.6-2.1v-2c0-1.12.62-2 1.6-2s1.72.87 1.72 3c0 1.59-.35 3.08-1.72 3.08m10.07-7.93a4.6 4.6 0 0 0-3.1 1 4.8 4.8 0 0 0-1.66 3.85 4.88 4.88 0 0 0 1.35 3.56 4.73 4.73 0 0 0 3.39 1.31 5.18 5.18 0 0 0 3-.85 3.87 3.87 0 0 0 1.48-2c0-.08.06-.25-.14-.25h-2.22a.42.42 0 0 0-.3.22 1.54 1.54 0 0 1-.31.47 1.89 1.89 0 0 1-1.38.54 1.78 1.78 0 0 1-1.68-1 3.05 3.05 0 0 1-.31-1.5h6.16c.25 0 .33-.18.34-.51v-.07a5.18 5.18 0 0 0-1.09-3.29 4.44 4.44 0 0 0-3.54-1.57m-1.88 3.87a2.13 2.13 0 0 1 .52-1.44 1.92 1.92 0 0 1 1.4-.59 1.64 1.64 0 0 1 1.4.7 2.27 2.27 0 0 1 .34 1.42zM63.35 8.82H57.5c0 1.7 1.67 2.29 2.91 2.29h5.85c0-1.71-1.67-2.29-2.91-2.29m0 3.63H57.5c0 1.7 1.67 2.29 2.91 2.29h5.85c0-1.7-1.67-2.29-2.91-2.29m0 3.63H57.5c0 1.7 1.67 2.29 2.91 2.29h5.85c0-1.71-1.67-2.29-2.91-2.29"/></g></g></svg>